<svg width="72" height="72" viewBox="0 0 72 72" fill="none" xmlns="http://www.w3.org/2000/svg">
<circle cx="36" cy="36" r="36" fill="#ECECFE"/>
<g clip-path="url(#clip0_91_5706)">
<path d="M47.4286 31.75C49.95 31.75 52 33.6559 52 36V48.75C52 51.0941 49.95 53 47.4286 53H24.5714C22.0464 53 20 51.0941 20 48.75V36C20 33.6559 22.0464 31.75 24.5714 31.75H47.4286ZM38.2857 40.25C38.2857 39.0746 37.2643 38.125 36 38.125C34.7357 38.125 33.7143 39.0746 33.7143 40.25V44.5C33.7143 45.6754 34.7357 46.625 36 46.625C37.2643 46.625 38.2857 45.6754 38.2857 44.5V40.25Z" fill="#651FFF"/>
<path opacity="0.4" d="M35.9996 23.25C32.8424 23.25 30.2853 25.6287 30.2853 28.5625V31.75H25.7139V28.5625C25.7139 23.2812 30.321 19 35.9996 19C41.6782 19 46.2853 23.2812 46.2853 28.5625V31.75H41.7139V28.5625C41.7139 25.6287 39.1567 23.25 35.9996 23.25Z" fill="#651FFF"/>
</g>
<defs>
<clipPath id="clip0_91_5706">
<rect width="32" height="34" fill="white" transform="translate(20 19)"/>
</clipPath>
</defs>
</svg>
