<svg width="72" height="72" viewBox="0 0 72 72" fill="none" xmlns="http://www.w3.org/2000/svg">
<circle cx="36" cy="36" r="36" fill="#ECECFE"/>
<g clip-path="url(#clip0_92_5409)">
<path d="M35.944 29.5524C31.5776 29.5383 28.6315 32.8571 28.6948 36.661C28.7475 40.0269 28.4311 43.4019 27.7547 46.6805C27.5614 47.5313 28.1502 48.4819 29.0639 48.6753C29.9147 48.8599 30.8654 48.2798 31.0587 47.3661C31.7879 43.842 32.1218 40.2223 32.0691 36.6715C32.0417 34.7766 33.4057 32.9133 35.8948 32.9274C38.1005 32.9626 39.9195 34.7112 39.9462 36.8297C40.0077 40.1415 39.7529 43.5973 39.1995 46.9196C39.0501 47.7704 39.674 48.7034 40.5966 48.8616C41.9937 49.0901 42.4775 47.7985 42.5302 47.4645C43.1102 44.0122 43.3824 40.3559 43.3212 36.8403C43.2565 32.843 39.9518 29.6086 35.944 29.5524ZM53.5854 32.3157C53.3833 31.4649 52.4949 30.8215 51.5724 31.0233C50.7216 31.2255 50.0874 32.1308 50.2892 33.0357C50.6232 34.5474 50.632 35.6724 50.6232 37.3683C50.6144 38.3 51.3614 39.0643 52.2931 39.0734C53.2156 39.0734 53.989 38.3267 53.9982 37.3951C54.0073 35.8454 54.0214 34.2985 53.5854 32.3157ZM50.7026 25.9383C47.2749 21.0608 41.6745 18.0844 35.705 18.0001C30.8014 17.9385 26.269 19.7466 22.894 23.1301C19.6336 26.3904 17.8779 30.7238 17.9482 35.3363L17.9395 36.848C17.9746 37.786 18.7041 38.5594 19.6357 38.5876C19.6533 38.5946 19.6709 38.5946 19.6885 38.5946C20.5393 38.5946 21.3493 37.8654 21.3127 36.9514L21.3215 35.2906C21.3317 31.5985 22.7288 28.1251 25.3409 25.5165C28.0739 22.7919 31.7654 21.3244 35.7261 21.3772C40.6036 21.3842 45.1971 23.8817 48.0026 27.8719C48.5387 28.6362 49.5846 28.8211 50.3489 28.285C51.0542 27.7454 51.3003 26.7047 50.7026 25.9383Z" fill="#651FFF"/>
<path opacity="0.4" d="M36.0073 35.2968C35.0756 35.2968 34.3831 36.0527 34.3831 36.921C34.4622 42.0011 33.8118 46.8984 32.4319 51.7921C32.1823 52.5445 32.5268 53.9999 33.9963 53.9999C34.7346 53.9999 35.411 53.5165 35.622 52.7695C36.5712 49.4036 37.7384 43.9523 37.6962 36.9843C37.6948 36.0562 36.9424 35.2968 36.0073 35.2968ZM28.1674 28.1601C27.4362 27.5695 26.3815 27.6749 25.7838 28.3991C23.9944 30.614 23.0192 33.4195 23.0627 36.2741C23.1067 38.9193 22.8958 41.5736 22.43 44.1562C22.263 45.007 22.8694 45.9491 23.7835 46.1158C25.1982 46.3619 25.6904 45.0702 25.689 44.7538C26.1899 41.9505 26.4273 39.0852 26.3745 36.2179C26.4096 34.1226 27.0846 32.1538 28.3432 30.5366C28.9971 29.8054 28.8917 28.7507 28.1674 28.1601ZM35.7963 23.7754C34.7768 23.7494 33.687 23.8724 32.6393 24.127C31.7344 24.2746 31.1719 25.1887 31.3828 26.1569C31.6026 27.0618 32.4445 27.6159 33.3586 27.4049C34.2002 27.232 34.9948 27.1405 35.8174 27.1476C41.1169 27.2267 45.4924 31.4718 45.5838 36.6116C45.619 39.2744 45.4872 41.8921 45.1884 44.5991C45.0829 45.5216 45.7508 46.2937 46.6734 46.4624C47.8511 46.5398 48.4664 45.6278 48.5367 44.9774C48.8619 42.1825 49.0024 39.37 48.9585 36.561C48.8393 29.6226 42.9682 23.8809 35.7963 23.7754Z" fill="#651FFF"/>
</g>
<defs>
<clipPath id="clip0_92_5409">
<rect width="36" height="36" fill="white" transform="translate(18 18)"/>
</clipPath>
</defs>
</svg>
