<svg width="72" height="72" viewBox="0 0 72 72" fill="none" xmlns="http://www.w3.org/2000/svg">
<circle cx="36" cy="36" r="36" fill="#ECECFE"/>
<path d="M37.0502 19.3001C37.5998 20.2631 37.4849 21.469 36.763 22.3106L35.4752 23.8184C34.6384 24.7863 34.6302 26.2219 35.4505 27.2063L36.5662 28.5352C37.0091 29.0684 37.0502 29.8313 36.6646 30.4137C36.2709 30.9961 35.5326 31.2504 34.8681 31.0289L32.8912 30.3973C32.3826 30.2004 31.7591 30.2496 31.2177 30.5203L30.7255 30.7582C29.9873 31.1355 29.6345 31.9887 29.897 32.7762C30.0201 33.1617 30.2908 33.4898 30.6435 33.6867L33.4736 35.3109C34.2693 35.7621 35.1716 36 36.0084 36H39.6177C40.6595 36 41.6685 36.4184 42.4068 37.1566L42.7185 37.4684C43.4568 38.2066 43.8752 39.2156 43.8752 40.2574V40.9301C43.8752 42.3492 43.1205 43.6535 41.89 44.3508L41.2255 44.7363C39.9869 45.4418 39.0845 46.6313 38.74 48.0176L38.5103 48.9363C38.174 50.1996 37.1568 51.3234 35.8279 51.7008C34.5974 52.0535 33.3013 51.1348 33.3013 49.8551V46.6559C33.3013 45.7535 32.8666 44.9332 31.9888 44.5313C31.2588 44.1293 30.6763 43.309 30.6763 42.4066V39.1336C30.6763 37.6652 29.7822 36.3773 28.2974 35.9754L23.4166 34.5645C22.2205 34.2199 21.1829 33.4652 20.4921 32.4234L18.7129 29.7574C21.2682 22.6814 28.0431 17.625 35.9263 17.625C36.033 17.625 36.0658 17.625 36.0904 17.625L37.0502 19.3001ZM52.1275 27.1898C53.563 29.8066 54.3752 32.809 54.3752 36C54.3752 37.0172 54.2193 38.0098 54.1373 38.9859L50.372 37.7309C49.5845 37.4684 48.9693 36.8531 48.7068 36.0656L47.2795 31.7836C46.8447 30.4711 47.5091 29.0355 48.797 28.5188L52.1275 27.1898Z" fill="#651FFF"/>
<path opacity="0.4" d="M18.7127 29.7574L20.492 32.4234C21.1827 33.4652 22.2204 34.2199 23.4164 34.5645L28.2973 35.9754C29.782 36.3773 30.6762 37.6652 30.6762 39.1336V42.4066C30.6762 43.309 31.2586 44.1293 31.9887 44.4574C32.8664 44.9332 33.3012 45.7535 33.3012 46.6559V49.8551C33.3012 51.1348 34.5973 52.0535 35.8277 51.7008C37.1566 51.3234 38.1738 50.1996 38.5102 48.9363L38.7398 48.0176C39.0844 46.6312 39.9867 45.4418 41.2254 44.7281L41.8898 44.3508C43.1203 43.6535 43.875 42.3492 43.875 40.9301V40.2574C43.875 39.2074 43.4566 38.2066 42.7184 37.4684L42.4066 37.1566C41.6684 36.4184 40.6594 35.9262 39.6176 35.9262H36.0082C35.1715 35.9262 34.2691 35.7621 33.4734 35.3109L30.6434 33.6867C30.2906 33.4898 30.0199 33.1617 29.8969 32.7762C29.6344 31.9887 29.9871 31.1273 30.7254 30.7582L31.2176 30.5203C31.759 30.2496 32.3824 30.2004 32.891 30.3973L34.868 31.0289C35.5324 31.2504 36.2707 30.9961 36.6645 30.4137C37.05 29.8312 37.009 29.0684 36.566 28.5352L35.4504 27.2062C34.6301 26.2219 34.6383 24.7863 35.475 23.8184L36.7629 22.3106C37.4848 21.4682 37.5996 20.2631 37.05 19.3001L36.0902 17.625C43.0055 17.6595 49.0184 21.5141 52.1273 27.1898L48.7969 28.5187C47.509 29.0355 46.8445 30.4629 47.2793 31.7836L48.7066 36.0656C48.9691 36.8531 49.5844 37.4684 50.3719 37.7309L54.1371 38.9859C52.7098 47.7141 45.1301 54.3012 36 54.3012C25.8527 54.3012 17.625 46.1473 17.625 35.9262C17.625 33.8098 18.0089 31.7016 18.7127 29.7574Z" fill="#651FFF"/>
</svg>
