<svg width="72" height="72" viewBox="0 0 72 72" fill="none" xmlns="http://www.w3.org/2000/svg">
<circle cx="36" cy="36" r="36" fill="#ECECFE"/>
<g clip-path="url(#clip0_91_5701)">
<path d="M29.25 30.375C29.25 23.5406 34.7906 18 41.625 18C48.4594 18 54 23.5406 54 30.375C54 37.2094 48.4594 42.75 41.625 42.75C40.3102 42.75 39.0375 42.5461 37.8492 42.1664L29.8336 34.1508C29.4539 32.9625 29.25 31.6898 29.25 30.375ZM44.4375 24.75C42.8836 24.75 41.625 26.0086 41.625 27.5625C41.625 29.1164 42.8836 30.375 44.4375 30.375C45.9914 30.375 47.25 29.1164 47.25 27.5625C47.25 26.0086 45.9914 24.75 44.4375 24.75Z" fill="#651FFF"/>
<path opacity="0.4" d="M29.8336 34.1509L37.8492 42.1665L35.4445 44.4446C35.1914 44.8243 34.7625 45.0001 34.3125 45.0001H31.5V47.8126C31.5 48.7478 30.7477 49.5001 29.8125 49.5001H27V52.3126C27 53.2478 26.2477 54.0001 25.3125 54.0001H19.6875C18.7559 54.0001 18 53.2478 18 52.3126V46.6876C18 46.2376 18.1778 45.8087 18.4942 45.4923L29.8336 34.1509Z" fill="#651FFF"/>
</g>
<defs>
<clipPath id="clip0_91_5701">
<rect width="36" height="36" fill="white" transform="translate(18 18)"/>
</clipPath>
</defs>
</svg>
