<svg width="564" height="669" viewBox="0 0 564 669" fill="none" xmlns="http://www.w3.org/2000/svg">
<g clip-path="url(#clip0_599_1654)">
<path d="M405.551 3.34957C391.409 -4.11083 374.074 1.21803 366.623 15.3776C359.172 29.5371 364.494 46.8939 378.636 54.3543C392.778 61.8147 410.113 56.4859 417.564 42.3264C425.015 28.3191 419.693 10.81 405.551 3.34957ZM393.842 23.7515C389.28 21.3154 387.608 15.6821 389.889 11.1145C392.322 6.54688 397.948 4.8721 402.51 7.1559C407.072 9.59195 408.744 15.2253 406.463 19.7929C404.03 24.3605 398.404 26.1875 393.842 23.7515Z" fill="#FFA81F"/>
<path d="M392.017 55.4201L385.631 43.2399L370.272 43.8489L369.816 44.9147L340.62 100.183L342.445 106.273L350.352 110.536L360.54 107.338L364.646 99.7258L362.365 91.8086L368.904 89.8293L367.079 83.7392L373.161 81.7599L371.033 75.213L378.484 72.9292L376.507 66.3823L387.76 63.4895L392.017 55.4201Z" fill="#FFA81F"/>
<path d="M346.551 104.446L344.878 97.5942L370.729 48.8732L374.226 51.9183L346.551 104.446Z" stroke="#000E39" stroke-width="0.75" stroke-miterlimit="10"/>
<path d="M392.322 54.9634C407.019 54.9634 418.933 43.0343 418.933 28.3191C418.933 13.6038 407.019 1.67477 392.322 1.67477C377.625 1.67477 365.711 13.6038 365.711 28.3191C365.711 43.0343 377.625 54.9634 392.322 54.9634Z" stroke="#000E39" stroke-width="0.75" stroke-miterlimit="10"/>
<path d="M482.505 544.219L418.142 567.486L434.46 612.74L498.823 589.473L482.505 544.219Z" fill="white"/>
<path d="M470.329 569.731C464.095 572.319 462.574 588.001 461.205 590.133C461.205 590.133 450.257 582.216 446.455 585.565C442.654 588.915 435.507 612.362 435.507 612.362C435.963 612.21 498.917 589.372 498.917 589.372C498.917 589.372 476.716 567.143 470.329 569.731Z" fill="#CCBFD5"/>
<path d="M460.293 567.599C461.661 571.101 459.837 575.06 456.187 576.278C452.69 577.496 448.736 575.669 447.367 572.167C445.999 568.665 447.824 564.707 451.473 563.489C455.123 562.271 458.924 564.098 460.293 567.599Z" fill="#CCBFD5"/>
<path d="M482.49 544.193L417.983 567.512L434.302 612.766L498.808 589.447L482.49 544.193Z" stroke="#000E39" stroke-width="0.75" stroke-miterlimit="10"/>
<path d="M135.64 67.4481C209.846 59.0742 284.661 56.6381 359.172 60.4445" stroke="#CCBFD5" stroke-miterlimit="10"/>
<path d="M117.369 425.776L50.2891 412.251L40.8036 459.415L107.884 472.94L117.369 425.776Z" fill="white"/>
<path d="M41.665 459.652C42.1212 459.804 107.812 473.05 107.812 473.05C107.812 473.05 100.361 442.6 93.5184 441.534C86.8276 440.468 77.5518 453.105 75.1188 454.171C75.1188 454.171 69.7966 441.838 64.9306 442.6C60.0646 443.361 41.665 459.652 41.665 459.652Z" fill="#FF9CB1"/>
<path d="M85.981 433.921C86.7274 430.211 84.396 426.612 80.7736 425.881C77.1512 425.151 73.6096 427.565 72.8632 431.275C72.1168 434.984 74.4482 438.583 78.0707 439.314C81.6931 440.045 85.2347 437.63 85.981 433.921Z" fill="#FF9CB1"/>
<path d="M117.364 425.792L50.1348 412.238L40.6493 459.402L107.879 472.957L117.364 425.792Z" stroke="#000E39" stroke-width="0.75" stroke-miterlimit="10"/>
<path d="M376.892 456.534L315.019 420.42L270.986 496.051L332.86 532.164L376.892 456.534Z" fill="white" stroke="#000E39" stroke-width="0.75" stroke-miterlimit="10"/>
<path d="M311.88 441.382C327.694 450.517 343.357 459.804 359.171 468.939" stroke="#000E39" stroke-width="0.75" stroke-miterlimit="10" stroke-linecap="round" stroke-linejoin="round"/>
<path d="M309.295 445.797C325.109 454.932 340.772 464.22 356.586 473.355" stroke="#000E39" stroke-width="0.75" stroke-miterlimit="10" stroke-linecap="round" stroke-linejoin="round"/>
<path d="M306.71 450.212C322.524 459.348 338.187 468.635 354.001 477.77" stroke="#000E39" stroke-width="0.75" stroke-miterlimit="10" stroke-linecap="round" stroke-linejoin="round"/>
<path d="M304.125 454.628C319.94 463.763 335.602 473.05 351.416 482.186" stroke="#000E39" stroke-width="0.75" stroke-miterlimit="10" stroke-linecap="round" stroke-linejoin="round"/>
<path d="M301.692 459.043C317.507 468.178 333.169 477.466 348.984 486.601" stroke="#000E39" stroke-width="0.75" stroke-miterlimit="10" stroke-linecap="round" stroke-linejoin="round"/>
<path d="M299.107 463.458C314.922 472.594 330.584 481.881 346.399 491.016" stroke="#000E39" stroke-width="0.75" stroke-miterlimit="10" stroke-linecap="round" stroke-linejoin="round"/>
<path d="M296.979 468.026C312.793 477.161 328.455 486.449 344.27 495.584" stroke="#000E39" stroke-width="0.75" stroke-miterlimit="10" stroke-linecap="round" stroke-linejoin="round"/>
<path d="M293.785 472.898C309.6 482.033 325.262 491.321 341.077 500.456" stroke="#000E39" stroke-width="0.75" stroke-miterlimit="10" stroke-linecap="round" stroke-linejoin="round"/>
<path d="M290.896 477.313C306.71 486.449 322.372 495.736 338.187 504.871" stroke="#000E39" stroke-width="0.75" stroke-miterlimit="10" stroke-linecap="round" stroke-linejoin="round"/>
<path d="M288.615 481.576C304.43 490.712 320.092 499.999 335.907 509.134" stroke="#000E39" stroke-width="0.75" stroke-miterlimit="10" stroke-linecap="round" stroke-linejoin="round"/>
<path d="M285.726 486.601C301.54 495.736 317.203 505.023 333.017 514.159" stroke="#000E39" stroke-width="0.75" stroke-miterlimit="10" stroke-linecap="round" stroke-linejoin="round"/>
<path d="M315.226 435.596C320.7 438.793 326.022 441.991 331.496 445.036" stroke="#000E39" stroke-width="0.75" stroke-miterlimit="10" stroke-linecap="round" stroke-linejoin="round"/>
<path d="M118.001 99.269C118.153 93.6356 119.217 49.1778 119.217 49.1778C119.217 49.1778 149.63 54.0499 170.766 35.6272C190.991 55.1156 221.555 51.7661 221.555 51.7661C221.555 51.7661 220.491 96.3762 220.339 101.857C220.187 107.491 219.426 121.346 203.46 138.094C187.645 154.841 167.573 162.454 167.573 162.454C167.573 162.454 148.109 153.776 133.055 136.267C118.001 118.757 117.849 104.902 118.001 99.269Z" fill="#651FFF"/>
<path d="M126.365 98.5077C126.517 93.7879 127.429 56.0291 127.429 56.0291C127.429 56.0291 152.367 60.2922 170.159 44.6102C187.19 61.0535 213.953 58.1607 213.953 58.1607C213.953 58.1607 213.04 95.9194 212.888 100.639C212.736 105.359 212.128 117.083 198.594 131.242C185.213 145.402 168.334 151.796 168.334 151.796C168.334 151.796 151.759 144.64 139.138 129.872C126.365 115.103 126.212 103.38 126.365 98.5077Z" stroke="#000E39" stroke-width="0.75" stroke-miterlimit="10" stroke-linecap="round" stroke-linejoin="round"/>
<path d="M221.099 52.2228L213.496 58.3129" stroke="#000E39" stroke-width="0.75" stroke-miterlimit="10" stroke-linecap="round" stroke-linejoin="round"/>
<path d="M170.158 44.7624C170.31 41.7173 170.614 38.6723 170.766 35.7795" stroke="#000E39" stroke-width="0.75" stroke-miterlimit="10" stroke-linecap="round" stroke-linejoin="round"/>
<path d="M127.581 56.7904L119.978 49.6345" stroke="#000E39" stroke-width="0.75" stroke-miterlimit="10" stroke-linecap="round" stroke-linejoin="round"/>
<path d="M168.03 151.796L167.726 161.997" stroke="#000E39" stroke-width="0.75" stroke-miterlimit="10" stroke-linecap="round" stroke-linejoin="round"/>
<path d="M166.053 114.038L145.98 96.3762L153.432 87.85L165.901 98.8122L190.535 75.9743L198.138 84.196L166.053 114.038Z" fill="#00B15F"/>
<path d="M512.755 309.683L433.682 281.668C432.618 281.211 432.01 279.993 432.314 278.928L453.754 218.331C454.667 215.743 457.404 214.372 459.989 215.286L486.904 224.878C488.729 225.487 489.945 227.162 490.097 228.989L491.01 237.515C491.162 238.276 491.618 238.885 492.226 239.037L531.611 253.045C532.675 253.501 533.283 254.567 532.979 255.785L515.492 308.312C515.036 309.531 513.819 309.987 512.755 309.683Z" fill="#FF7439"/>
<path d="M484.233 227.972L460.864 219.7L458.431 226.59L481.8 234.862L484.233 227.972Z" fill="white"/>
<path d="M152.671 624.999C222.316 619.061 293.785 617.843 363.582 620.431" stroke="#CCBFD5" stroke-miterlimit="10"/>
<path d="M251.511 662.149L142.635 637.636C138.681 636.722 136.248 632.916 137.16 628.957L152.062 562.271C152.975 558.312 156.776 555.876 160.73 556.79L269.607 581.302C273.56 582.216 275.993 586.022 275.081 589.981L260.179 656.668C259.267 660.474 255.313 663.062 251.511 662.149Z" fill="#00E5FF"/>
<path d="M183.083 592.721L164.684 588.61C163.315 588.306 162.403 586.936 162.707 585.565L165.596 572.624C165.9 571.254 167.269 570.34 168.637 570.644L187.037 574.755C188.406 575.06 189.318 576.43 189.014 577.8L186.125 590.742C185.821 592.264 184.452 593.026 183.083 592.721Z" fill="#FFA81F"/>
<path d="M165.444 575.821C173.047 577.496 180.499 579.171 188.102 580.845" stroke="#FF7439" stroke-width="0.75" stroke-miterlimit="10" stroke-linecap="round" stroke-linejoin="round"/>
<path d="M163.924 582.52C171.527 584.195 178.978 585.87 186.581 587.697" stroke="#FF7439" stroke-width="0.75" stroke-miterlimit="10" stroke-linecap="round" stroke-linejoin="round"/>
<path d="M172.743 571.71C171.526 577.496 170.158 583.282 168.941 588.915" stroke="#FF7439" stroke-width="0.75" stroke-miterlimit="10" stroke-linecap="round" stroke-linejoin="round"/>
<path d="M182.171 573.842C180.954 579.627 179.586 585.413 178.369 591.046" stroke="#FF7439" stroke-width="0.75" stroke-miterlimit="10" stroke-linecap="round" stroke-linejoin="round"/>
<path d="M261.529 591.826L237.345 586.384L234.31 599.902L258.494 605.344L261.529 591.826Z" fill="#651FFF"/>
<path d="M175.741 610.266L157.344 606.126L156.043 611.92L174.441 616.06L175.741 610.266Z" fill="#651FFF"/>
<path d="M202.367 616.196L183.97 612.055L182.669 617.849L201.067 621.989L202.367 616.196Z" fill="#651FFF"/>
<path d="M228.992 622.125L210.595 617.985L209.294 623.778L227.692 627.919L228.992 622.125Z" fill="#651FFF"/>
<path d="M255.735 628.236L237.338 624.096L236.037 629.89L254.435 634.03L255.735 628.236Z" fill="#651FFF"/>
<path d="M176.963 633.555L152.779 628.112L152.246 630.489L176.43 635.931L176.963 633.555Z" fill="#651FFF"/>
<path d="M413.002 414.281L462.574 472.898C464.247 474.877 467.288 475.182 469.265 473.507L535.108 417.63C537.085 415.955 537.389 412.91 535.716 410.931L486.144 352.314C484.471 350.334 481.43 350.03 479.453 351.705L413.61 407.582C411.481 409.256 411.177 412.301 413.002 414.281Z" fill="#FFA81F"/>
<path d="M464.703 357.947L467.745 361.601L475.348 355.206L472.002 351.248C459.077 335.87 435.507 333.739 419.845 346.985C404.182 360.231 402.358 383.83 415.587 399.512L418.628 403.014L426.232 396.619L423.19 393.117C413.458 381.546 414.827 364.342 426.384 354.75C437.788 345.005 454.971 346.528 464.703 357.947Z" fill="#651FFF"/>
<path d="M508.649 347.746C508.649 347.746 506.673 359.165 502.415 380.328C498.005 401.339 491.01 432.094 479.757 470.005L479.301 469.853C485.232 438.641 492.531 401.339 500.438 359.622L501.046 359.774C491.618 393.27 481.126 430.572 469.873 470.462L469.113 470.31C478.693 433.921 488.881 394.64 499.678 353.684L500.438 353.988C484.928 392.204 471.546 433.465 461.51 476.704C460.902 479.445 460.293 482.185 459.685 484.926L458.925 484.774C469.873 437.119 480.67 390.986 490.706 346.833L491.466 346.985C481.126 389.159 471.09 429.506 461.814 467.265L461.054 467.112C468.809 429.201 475.956 393.879 482.495 361.601L483.103 361.753C470.33 400.121 461.662 434.683 455.732 464.067L455.275 463.915C462.118 428.288 467.44 400.121 471.09 380.785C472.915 371.193 474.283 363.733 475.348 358.708C475.804 356.272 476.26 354.293 476.412 353.075C476.716 351.857 476.868 351.096 476.868 351.096C476.868 351.096 476.716 351.705 476.564 353.075C476.26 354.293 475.956 356.272 475.5 358.708C474.587 363.733 473.219 371.041 471.394 380.785C467.745 400.121 462.574 428.288 455.884 463.915L455.427 463.763C461.358 434.226 469.873 399.664 482.647 361.297L483.255 361.449C476.716 393.726 469.569 429.049 461.966 466.96L461.206 466.808C470.482 429.049 480.366 388.854 490.706 346.528L491.466 346.68C481.278 390.681 470.634 436.966 459.685 484.622L458.925 484.469C459.533 481.729 460.141 478.988 460.902 476.248C471.09 433.008 484.319 391.747 499.982 353.532L500.742 353.836C489.946 394.64 479.757 433.921 470.178 470.31L469.417 470.157C480.67 430.419 491.162 392.965 500.742 359.47L501.35 359.622C493.291 401.339 486.144 438.489 480.062 469.701L479.605 469.548C490.858 431.485 497.853 400.882 502.415 379.871C504.696 369.366 506.216 361.297 507.281 355.815C507.737 353.075 508.193 350.943 508.497 349.573C508.497 348.507 508.649 347.746 508.649 347.746Z" fill="white"/>
<path d="M475.5 400.426C472.003 396.315 465.92 395.858 461.967 399.36C457.861 402.862 457.405 408.952 460.902 412.91C463.639 416.108 467.897 417.021 471.547 415.651L477.933 433.008L492.683 420.523L476.565 411.236C478.389 408.038 478.085 403.623 475.5 400.426Z" fill="#000E39"/>
<path d="M138.529 306.029L43.946 335.718C42.5774 336.175 41.2088 335.414 40.7527 334.043L18.0953 261.419C17.183 258.373 18.8556 255.024 21.8969 254.11L54.2862 243.909C56.4151 243.3 58.696 243.909 60.2167 245.432L67.0595 252.74C67.6677 253.349 68.428 253.654 69.3404 253.349L116.632 238.581C118 238.124 119.369 238.885 119.825 240.255L140.354 302.679C140.658 304.202 139.897 305.724 138.529 306.029Z" fill="#FFA81F"/>
<path d="M53.6827 248.87L25.6729 257.641L28.2601 265.924L56.2699 257.153L53.6827 248.87Z" fill="white"/>
<path d="M30.108 379.871C30.108 379.871 30.7162 379.11 31.9327 377.588C33.1492 376.065 34.974 373.781 37.407 370.889C42.1209 364.951 49.1158 356.272 58.0875 345.005C75.8788 322.472 101.273 289.738 131.077 248.629L131.534 249.086C116.936 259.896 102.794 273.599 89.1082 289.129C75.4226 304.658 62.4973 322.168 48.9637 340.438L48.3555 339.981C68.5798 311.51 92.3015 281.82 119.065 252.74L119.673 253.349C109.028 263.702 97.9278 274.817 86.9793 286.388C69.9483 304.202 53.8297 322.32 38.6235 340.286L38.0152 339.829C64.4741 303.897 91.6933 271.467 118.152 242.996L118.608 243.453C81.6572 275.883 51.8529 308.008 28.7394 336.023L28.2832 335.718C52.7653 307.094 72.2293 284.104 85.7629 268.27C92.4536 260.353 97.7758 254.263 101.273 250.152C103.098 248.173 104.314 246.498 105.379 245.432C106.291 244.366 106.747 243.909 106.747 243.909C106.747 243.909 106.291 244.518 105.379 245.584C104.467 246.65 103.098 248.173 101.425 250.304C97.9278 254.415 92.7577 260.657 86.067 268.574C72.6855 284.409 53.0694 307.399 28.7394 336.175L28.2832 335.87C51.3967 307.856 81.201 275.578 118.152 242.996L118.608 243.453C92.1495 271.924 64.9303 304.354 38.4714 340.286L37.8631 339.829C53.0694 321.863 69.188 303.745 86.219 285.931C97.1675 274.36 108.268 263.246 119.065 252.892L119.673 253.501C93.0618 282.582 69.3401 312.271 48.9637 340.742L48.3555 340.286C61.889 322.015 74.9664 304.658 88.5 288.976C102.034 273.447 116.327 259.744 131.077 248.934L132.75 247.716L131.534 249.391C101.577 290.347 76.1829 323.081 58.2395 345.614C49.2678 356.881 42.273 365.56 37.407 371.498C34.974 374.39 33.1492 376.674 31.9327 378.197C30.7162 379.11 30.108 379.871 30.108 379.871Z" fill="white"/>
<path d="M363.733 620.431C435.811 624.238 486.144 633.068 486.144 643.269C486.144 656.972 395.667 668.086 284.205 668.086C172.743 668.086 82.2656 656.972 82.2656 643.269C82.2656 637.027 106.9 630.023 137.768 625.76" stroke="#CCBFD5" stroke-miterlimit="10"/>
<path d="M383.502 642.356C385.853 642.356 387.76 640.447 387.76 638.093C387.76 635.738 385.853 633.829 383.502 633.829C381.15 633.829 379.244 635.738 379.244 638.093C379.244 640.447 381.15 642.356 383.502 642.356Z" fill="#CCBFD5"/>
<path d="M8.66757 416.869C8.66757 419.305 6.69075 421.132 4.40981 421.132C2.12888 421.132 0 419.305 0 416.869C0 414.433 1.97681 412.606 4.25775 412.606C6.53869 412.606 8.66757 414.433 8.66757 416.869Z" fill="#CCBFD5"/>
<path d="M394.906 310.444C394.906 314.403 391.713 317.6 387.759 317.6C383.806 317.6 380.612 314.403 380.612 310.444C380.612 306.485 383.806 303.288 387.759 303.288C391.713 303.288 394.906 306.485 394.906 310.444Z" stroke="#CCBFD5" stroke-miterlimit="10"/>
<path d="M432.314 514.159C432.314 516.595 430.337 518.422 428.057 518.422C425.624 518.422 423.799 516.442 423.799 514.159C423.799 511.723 425.776 509.896 428.057 509.896C430.337 509.896 432.314 511.875 432.314 514.159Z" fill="#CCBFD5"/>
<path d="M112.223 578.409C112.223 580.846 110.246 582.673 107.965 582.673C105.532 582.673 103.707 580.693 103.707 578.409C103.707 575.973 105.684 574.146 107.965 574.146C110.246 574.146 112.223 575.973 112.223 578.409Z" fill="#CCBFD5"/>
<path d="M82.2655 175.396C82.2655 177.832 80.2887 179.659 78.0078 179.659C75.5747 179.659 73.75 177.679 73.75 175.396C73.75 172.959 75.7268 171.132 78.0078 171.132C80.2887 171.132 82.2655 172.959 82.2655 175.396Z" fill="#CCBFD5"/>
<path d="M282.837 35.475C282.837 37.911 280.86 39.7381 278.579 39.7381C276.146 39.7381 274.321 37.7588 274.321 35.475C274.321 33.0389 276.298 31.2119 278.579 31.2119C280.86 31.2119 282.837 33.1912 282.837 35.475Z" fill="#CCBFD5"/>
<path d="M513.516 143.27C513.516 145.706 511.539 147.533 509.258 147.533C506.825 147.533 505 145.554 505 143.27C505 140.986 506.977 139.007 509.258 139.007C511.539 139.007 513.516 140.986 513.516 143.27Z" fill="#CCBFD5"/>
<path d="M509.258 171.437C509.258 172.655 508.345 173.569 507.129 173.569C505.912 173.569 505 172.655 505 171.437C505 170.219 505.912 169.305 507.129 169.305C508.193 169.305 509.258 170.219 509.258 171.437Z" fill="#CCBFD5"/>
<path d="M81.0497 384.439C81.0497 385.657 80.1374 386.571 78.9209 386.571C77.7044 386.571 76.792 385.657 76.792 384.439C76.792 383.221 77.7044 382.307 78.9209 382.307C80.1374 382.307 81.0497 383.221 81.0497 384.439Z" fill="#CCBFD5"/>
<path d="M115.111 146.772C116.287 146.772 117.24 145.818 117.24 144.64C117.24 143.463 116.287 142.509 115.111 142.509C113.936 142.509 112.982 143.463 112.982 144.64C112.982 145.818 113.936 146.772 115.111 146.772Z" fill="#CCBFD5"/>
<path d="M398.1 464.372C399.275 464.372 400.228 463.418 400.228 462.24C400.228 461.063 399.275 460.109 398.1 460.109C396.924 460.109 395.971 461.063 395.971 462.24C395.971 463.418 396.924 464.372 398.1 464.372Z" fill="#CCBFD5"/>
<path d="M464.096 124.086C464.096 124.086 449.802 130.024 445.544 127.74C445.544 127.74 464.248 121.193 463.183 114.647C462.727 112.058 458.469 89.068 458.469 89.068C454.364 92.8744 451.018 98.051 445.544 99.878C437.485 102.466 429.577 96.3762 421.67 93.3311C409.809 88.9158 401.598 92.2654 381.678 104.598C372.858 109.318 362.67 109.318 354.154 102.923C347.007 97.5942 339.708 92.8744 331.649 89.068L327.848 87.3933C315.987 81.4554 305.342 81.4554 294.394 84.1959C292.569 84.6527 290.744 85.2617 289.072 85.8707C278.731 90.1338 270.368 99.269 267.175 109.927C266.11 113.276 264.437 116.626 264.437 120.28C263.981 137.941 277.059 138.094 280.708 147.533C280.708 147.533 289.832 168.544 319.028 160.779C336.211 156.212 348.68 163.063 353.546 166.717C355.827 168.392 358.412 169.914 361.149 170.828C366.928 172.807 376.508 175.091 384.415 172.503C396.884 168.544 399.925 163.977 413.915 165.499C427.905 167.174 432.619 171.132 443.567 170.523C454.212 169.914 459.23 163.672 467.745 157.43L464.096 124.086Z" fill="#00E5FF"/>
<path d="M287.399 167.478V196.254H320.397L321.613 148.142L287.399 167.478Z" fill="#FFBAA2"/>
<path d="M269.608 113.429C269.456 114.038 267.631 142.052 268.543 148.751C269.304 155.45 275.082 166.717 288.007 167.631C303.67 168.696 322.526 149.513 322.526 149.513V105.664C322.526 105.664 314.162 89.9816 295.458 90.1338C276.755 90.1338 269.608 113.429 269.608 113.429Z" fill="#FFBAA2"/>
<path d="M268.999 122.868C268.999 122.716 270.672 122.564 272.041 122.868C281.012 124.695 282.381 131.09 282.381 131.09C282.381 131.09 279.036 134.592 271.737 133.526C270.368 133.374 269.912 133.069 268.695 132.46L268.999 122.868Z" fill="white"/>
<path d="M295.306 117.387C295.002 116.93 295.61 116.017 296.979 115.256C298.195 114.494 300.324 113.885 302.453 113.885C304.734 113.885 306.711 114.494 307.927 115.256C309.296 116.017 309.752 116.93 309.448 117.387C309.144 117.844 308.232 117.844 307.015 117.844C305.799 117.844 304.126 117.692 302.301 117.692C298.804 117.844 295.914 118.453 295.306 117.387Z" fill="#000E39"/>
<path d="M285.422 132.612C284.358 134.439 283.293 136.114 282.229 137.941C281.925 138.398 281.621 139.007 281.925 139.616C282.077 140.073 282.533 140.377 282.989 140.53C284.054 140.986 285.118 141.443 286.183 141.595" stroke="#FF7439" stroke-width="0.75" stroke-miterlimit="10" stroke-linecap="round" stroke-linejoin="round"/>
<path d="M318.572 133.83C318.724 130.329 324.046 128.197 327.543 127.893C331.041 127.588 334.386 129.872 335.907 133.069C337.428 136.266 336.971 140.073 335.147 143.118C333.322 146.163 330.433 148.294 327.087 149.36C323.742 150.426 320.245 150.578 316.747 150.122L318.572 133.83Z" fill="#FFBAA2"/>
<path d="M310.817 158.495C310.817 158.495 308.384 173.264 287.399 174.33V167.478C291.505 167.478 301.237 165.956 310.817 158.495Z" fill="#000E39"/>
<path d="M270.216 116.626C270.063 116.169 270.672 115.408 271.736 115.103C272.801 114.647 274.321 114.494 275.994 114.647C277.667 114.951 279.035 115.56 279.948 116.169C280.86 116.93 281.164 117.539 280.86 118.148C280.404 119.062 277.971 118.91 275.386 118.605C272.649 118.148 270.368 117.692 270.216 116.626Z" fill="#000E39"/>
<path d="M271.737 133.526C270.368 133.374 269.912 133.069 268.695 132.46V128.806C268.695 128.197 268.695 127.436 268.847 126.827L269.152 122.868C269.152 122.716 270.824 122.564 272.193 122.868C273.105 123.02 273.713 123.173 274.474 123.477C274.474 123.629 275.994 131.394 274.018 133.678C273.257 133.678 272.345 133.678 271.737 133.526Z" fill="#000E39"/>
<path d="M292.265 89.2203C308.535 87.3933 319.332 95.7672 319.332 95.7672L326.935 105.511C327.999 106.12 326.631 114.342 327.543 115.103C328.151 115.408 328.76 115.865 329.064 116.474C329.52 117.235 328.912 118.301 329.064 119.062C329.216 124.543 327.239 130.938 321.917 133.678C318.419 127.588 317.507 119.671 319.028 112.667C314.77 110.84 310.968 107.643 308.383 103.684C298.499 113.885 282.381 117.235 269.303 111.754C269.151 111.906 275.994 91.0473 292.265 89.2203Z" fill="#00E5FF"/>
<path d="M321.765 135.353C322.678 134.287 323.742 133.374 325.111 132.917C326.479 132.46 327.848 132.46 329.216 132.917C331.345 133.83 332.41 136.266 332.106 138.398C331.801 140.682 330.129 142.509 328.152 143.422C326.175 144.336 323.742 144.336 321.613 143.727" stroke="#FF7439" stroke-width="0.75" stroke-miterlimit="10" stroke-linecap="round" stroke-linejoin="round"/>
<path d="M313.554 127.284C313.554 127.284 310.36 121.498 301.237 123.02C292.265 124.543 291.353 130.785 291.353 130.785C291.353 130.785 297.587 135.048 304.126 133.526C311.425 131.851 313.554 127.284 313.554 127.284Z" fill="white"/>
<path d="M300.628 122.868C300.78 122.868 300.932 122.868 301.084 122.868C301.084 123.02 304.126 128.654 301.236 133.83C295.61 133.983 290.744 130.785 290.744 130.785C290.744 130.785 291.657 124.391 300.628 122.868Z" fill="#000E39"/>
<path d="M286.335 147.381C288.008 145.858 289.832 144.488 291.961 143.727C293.026 143.27 294.242 143.118 295.155 143.727C295.763 144.184 296.219 144.793 296.371 145.554C296.675 147.381 295.307 149.36 293.482 149.969C291.657 150.578 289.528 150.426 287.856 149.513C287.399 149.208 286.335 148.142 286.335 147.381Z" fill="white"/>
<path d="M327.696 127.893C327.696 127.893 331.345 83.7392 275.538 96.2239L278.579 93.9401C286.182 89.068 305.342 80.3896 321.613 92.5699C332.866 100.944 337.275 115.408 330.585 127.74C330.433 127.893 330.433 128.045 330.281 128.197L327.696 127.893Z" fill="#FF7439"/>
<path d="M239.195 216.352L222.772 238.581L195.401 193.057L181.563 209.805L206.35 263.093C211.064 273.447 224.445 276.339 233.113 269.031L234.785 267.661L262.461 234.317L239.195 216.352Z" fill="#FFBAA2"/>
<path d="M137.009 183.617C137.009 183.617 139.594 193.514 150.086 197.015C160.731 200.517 177.305 199.147 177.305 199.147L181.715 209.957L195.553 193.209C195.553 193.209 196.465 184.987 185.973 184.987L165.749 185.14C165.749 185.14 166.357 174.33 164.38 172.503C160.731 169.153 159.058 172.959 158.602 176.614C158.145 180.268 159.058 186.662 159.058 186.662C159.058 186.662 155.408 188.337 155.104 185.901C154.8 183.465 156.473 173.569 154.04 172.503C149.174 170.219 147.653 174.939 147.653 174.939C147.653 174.939 142.027 172.655 141.723 179.659L141.571 182.247C141.267 182.095 138.377 179.811 137.009 183.617Z" fill="#FFBAA2"/>
<path d="M177.61 178.745C177.458 177.223 177.762 175.7 177.914 174.178C178.066 172.655 177.762 170.98 176.545 170.067C175.025 168.849 172.592 169.458 171.375 171.132C170.159 172.655 169.854 174.787 169.854 176.614C169.854 179.659 170.311 182.856 171.223 185.749L181.867 188.642C181.867 184.987 178.066 182.247 177.61 178.745Z" fill="#FFBAA2"/>
<path d="M166.356 185.292C172.439 184.378 179.586 183.922 185.668 184.835C188.558 185.292 192.815 185.749 194.336 188.642" stroke="#FF7439" stroke-width="0.75" stroke-miterlimit="10" stroke-linecap="round" stroke-linejoin="round"/>
<path d="M161.795 192.143C157.993 192.143 158.449 187.576 158.449 183.465C158.297 180.724 158.297 177.984 158.602 175.396C158.754 174.33 158.906 173.416 159.514 172.503C160.122 171.741 162.251 170.98 163.011 171.589" stroke="#FF7439" stroke-width="0.75" stroke-miterlimit="10" stroke-linecap="round" stroke-linejoin="round"/>
<path d="M147.805 174.787C147.045 177.832 146.437 180.877 146.437 183.922C146.437 186.967 147.197 190.164 149.022 192.6C150.39 194.427 152.367 195.645 154.496 196.254" stroke="#FF7439" stroke-width="0.75" stroke-miterlimit="10" stroke-linecap="round" stroke-linejoin="round"/>
<path d="M141.267 182.095C141.267 182.095 140.507 190.316 144.156 193.818" stroke="#FF7439" stroke-width="0.75" stroke-miterlimit="10" stroke-linecap="round" stroke-linejoin="round"/>
<path d="M312.945 507.764L282.076 540.651L338.643 581.15L376.963 555.267L312.945 507.764Z" fill="#FF7439"/>
<path d="M353.089 557.551C352.481 552.983 352.329 545.523 359.476 540.498L390.953 561.966L320.396 648.294C320.396 648.294 312.184 642.508 317.202 626.065C322.22 609.621 326.326 577.191 328.607 574.755C330.888 572.319 334.385 572.472 338.491 571.71C339.86 571.406 343.205 570.949 345.334 570.34C350.808 568.665 354.001 563.184 353.089 557.551Z" fill="#651FFF"/>
<path d="M324.045 595.31C328.151 592.721 333.321 592.264 337.883 594.092" stroke="white" stroke-width="0.75" stroke-miterlimit="10" stroke-linecap="round" stroke-linejoin="round"/>
<path d="M322.221 603.379C326.478 600.486 332.409 600.334 336.971 602.77" stroke="white" stroke-width="0.75" stroke-miterlimit="10" stroke-linecap="round" stroke-linejoin="round"/>
<path d="M320.548 611.753C324.806 608.86 330.736 608.708 335.298 611.144" stroke="white" stroke-width="0.75" stroke-miterlimit="10" stroke-linecap="round" stroke-linejoin="round"/>
<path d="M329.368 655.449C335.602 652.709 335.754 647.989 337.883 644.792C340.164 641.442 345.791 639.92 348.224 636.875C352.481 631.546 352.785 626.674 355.979 622.715C360.693 616.777 365.559 616.625 370.121 610.23C373.466 605.51 372.554 602.313 376.203 597.746C378.788 594.548 384.414 592.873 387.456 589.067C392.17 583.129 389.585 582.368 392.018 579.018C394.907 575.06 398.556 577.039 402.358 571.254L390.953 561.966L319.636 647.685L329.368 655.449Z" fill="#CCBFD5"/>
<path d="M361.605 231.272L407.528 264.92L423.191 331.912L442.503 329.628L435.052 262.941C434.443 255.328 430.794 248.325 425.016 243.3L381.982 207.673L361.605 231.272Z" fill="#FFBAA2"/>
<path d="M442.655 328.105L426.384 325.06C426.384 325.06 419.389 332.064 416.804 335.414C414.219 338.763 409.505 352.161 409.505 352.161C409.505 352.161 407.528 357.338 407.528 365.407L415.436 352.161C415.436 352.161 418.021 373.02 421.822 374.847C425.472 376.826 428.817 372.411 428.817 372.411C428.817 372.411 428.817 372.411 432.771 372.868C436.724 373.325 437.028 368.452 437.028 368.452C442.199 370.432 443.263 365.56 443.263 365.56C449.041 365.712 448.585 362.667 448.737 358.099C448.737 353.532 442.807 328.562 442.655 328.105Z" fill="#FFBAA2"/>
<path d="M274.473 346.376L262.916 365.56L203.308 435.748C183.084 455.237 185.821 484.165 206.653 503.044L303.973 573.69L344.27 527.557L258.811 465.894L339.556 374.238L274.473 346.376Z" fill="#00E5FF"/>
<path d="M184.452 382.307L145.22 388.398L147.044 458.738L182.019 451.278L184.452 382.307Z" fill="#FF7439"/>
<path d="M172.135 438.489C172.591 433.921 174.568 426.613 182.628 423.568L207.566 452.344L117.393 517.813C117.393 517.813 110.854 510.2 119.978 495.584C128.95 480.967 141.267 450.669 144.156 448.842C147.045 447.015 150.39 448.081 154.496 448.385C155.865 448.538 159.21 448.842 161.491 448.842C166.965 448.385 171.375 443.97 172.135 438.489Z" fill="#651FFF"/>
<path d="M134.271 467.417C138.833 466.047 144.003 466.808 147.957 469.701" stroke="white" stroke-width="0.75" stroke-miterlimit="10" stroke-linecap="round" stroke-linejoin="round"/>
<path d="M130.47 474.725C135.336 473.05 141.114 474.421 144.764 477.922" stroke="white" stroke-width="0.75" stroke-miterlimit="10" stroke-linecap="round" stroke-linejoin="round"/>
<path d="M126.82 482.49C131.686 480.815 137.465 482.185 141.114 485.687" stroke="white" stroke-width="0.75" stroke-miterlimit="10" stroke-linecap="round" stroke-linejoin="round"/>
<path d="M124.084 526.948C130.775 525.882 132.143 521.315 135.032 518.726C138.074 516.138 143.852 515.986 147.045 513.702C152.52 509.743 154.04 505.023 158.146 501.978C164.228 497.411 168.942 498.629 174.873 493.452C179.283 489.646 179.283 486.449 183.997 482.947C187.342 480.511 193.12 480.358 197.074 477.466C203.156 473.05 200.875 471.528 204.069 468.939C207.87 465.894 210.912 468.635 215.93 464.067L207.414 452.192L116.633 516.899L124.084 526.948Z" fill="#CCBFD5"/>
<path d="M354.762 306.485L282.532 306.638L184.148 264.007C173.96 261.266 165.596 262.637 158.753 265.682C145.828 271.619 137.769 284.713 137.617 299.025L137.312 329.323L137.921 413.672L198.746 417.478L195.096 331.912L289.983 381.242C296.826 385.2 312.793 389.616 321.764 388.398C335.602 386.418 347.159 377.283 353.85 369.061C365.863 353.684 359.78 319.731 354.762 306.485Z" fill="#00E5FF"/>
<path d="M194.793 332.064C189.166 323.538 183.54 315.012 177.762 306.485" stroke="#000E39" stroke-width="0.75" stroke-miterlimit="10" stroke-linecap="round" stroke-linejoin="round"/>
<path d="M347.616 375.456C338.492 385.048 318.42 393.422 299.26 385.2C284.205 378.806 269.912 371.802 254.705 363.124C248.471 359.47 194.793 332.064 194.793 332.064L198.442 417.63L137.617 413.824" stroke="#000E39" stroke-width="0.75" stroke-miterlimit="10" stroke-linecap="round" stroke-linejoin="round"/>
<path d="M238.131 287.302L337.732 332.064" stroke="#000E39" stroke-width="0.75" stroke-miterlimit="10" stroke-linecap="round" stroke-linejoin="round"/>
<path d="M148.565 205.085C224.293 199.299 305.798 198.386 382.133 202.344" stroke="#CCBFD5" stroke-miterlimit="10"/>
<path d="M348.071 224.269L358.867 234.47L383.654 206.455C372.705 198.081 364.038 192.448 357.651 188.642C349.744 184.074 340.772 181.486 331.648 181.333L321.004 181.181L287.55 183.313C287.55 183.313 276.754 185.14 269.759 187.119C262.308 189.098 255.617 193.361 250.447 198.995L229.614 222.137L257.746 241.93L262.46 234.317L277.97 287.454L271.127 301.918L282.532 306.79H359.476L350.504 285.931C350.352 285.779 349.135 252.588 348.071 224.269Z" fill="#651FFF"/>
<path d="M352.481 238.428C351.112 238.276 349.744 238.276 348.527 238.276C347.159 238.276 345.79 238.276 344.574 238.276C343.205 238.276 341.685 238.581 340.316 238.581C338.947 238.581 337.731 238.124 336.362 238.124C334.994 238.124 333.625 238.428 332.409 238.581L328.607 238.733C327.391 238.733 326.022 238.581 324.654 238.581C323.437 238.581 322.373 238.733 321.156 238.885C319.94 239.037 318.115 238.428 316.746 238.581C315.53 238.733 314.161 238.428 312.793 238.581C311.424 238.733 310.208 239.037 308.839 239.19C307.47 239.342 306.254 239.799 304.885 240.103C303.517 240.408 302.3 240.103 300.932 240.408L296.978 241.169H296.674C296.522 241.169 296.37 241.169 296.066 241.169C294.697 241.169 293.481 241.93 292.264 241.93C290.896 241.93 289.831 243.3 288.615 243.3C287.246 243.3 286.03 243.605 284.813 243.605C283.445 243.605 282.38 244.823 281.012 244.823C279.643 244.823 278.427 244.366 277.058 244.366C275.689 244.366 274.321 244.671 272.952 244.823C271.584 244.975 270.063 244.062 268.695 244.366C267.326 244.518 266.109 244.823 264.741 245.28C262.764 245.736 263.22 249.086 265.197 249.086C266.566 249.086 267.934 249.086 269.151 248.934C270.519 248.934 271.888 248.782 273.104 248.782C274.473 248.629 275.689 248.02 277.058 247.868C278.427 247.716 280.403 248.934 281.62 248.934C282.988 248.782 284.205 248.02 285.573 247.868C286.79 247.868 288.159 249.695 289.527 249.543C290.744 249.543 292.112 248.325 293.329 248.325C294.545 248.325 295.61 248.934 296.826 248.782C298.043 248.629 299.411 248.629 300.628 248.477C301.844 248.325 303.821 246.802 305.037 246.65C306.406 246.498 307.318 246.65 308.535 246.498C309.903 246.345 310.816 246.802 312.184 246.65C313.401 246.498 314.465 245.432 315.834 245.28L319.788 244.823C321.156 244.671 322.373 244.366 323.741 244.366C325.11 244.214 326.478 243.3 327.695 243.3C329.063 243.3 330.128 243.909 331.496 243.909C332.865 243.909 334.081 244.062 335.45 244.062C336.819 244.062 338.035 244.062 339.404 243.909C340.62 243.909 341.989 244.214 343.205 244.062C343.509 244.062 343.813 244.062 344.27 244.062C345.638 244.062 347.007 242.539 348.375 242.387C349.744 242.235 350.96 242.996 352.177 242.844C354.306 242.235 354.458 238.581 352.481 238.428Z" fill="#CCBFD5"/>
<path d="M357.955 283.647C356.586 283.647 355.066 283.647 353.697 283.647C352.329 283.647 350.808 283.647 349.439 283.8C348.071 283.8 346.246 284.256 344.878 284.256C343.509 284.256 342.14 283.8 340.62 283.952C339.251 283.952 337.731 284.256 336.362 284.409L332.256 284.561C330.888 284.561 329.519 284.256 328.151 284.409C326.782 284.409 325.718 284.561 324.349 284.561C322.981 284.561 321.004 283.952 319.635 284.104C318.267 284.104 316.898 283.8 315.53 283.952C314.161 284.104 312.792 284.256 311.272 284.409C309.903 284.561 308.383 284.865 307.014 285.018C305.645 285.17 304.277 284.865 302.908 285.018L298.651 285.475H298.346C298.194 285.475 297.89 285.475 297.738 285.322C296.37 285.17 295.001 285.779 293.633 285.627C292.264 285.475 290.895 286.693 289.527 286.54C288.158 286.388 286.79 286.54 285.421 286.388C284.053 286.236 282.684 287.302 281.315 287.149C279.947 286.997 278.578 286.236 277.21 286.084C275.841 285.931 274.168 285.931 272.8 285.779C271.431 285.627 269.759 284.561 268.39 284.561C267.022 284.561 265.501 284.561 264.132 284.713C261.851 284.866 261.699 288.063 263.98 288.52C265.349 288.824 266.869 288.976 268.238 289.129C269.607 289.281 271.127 289.433 272.496 289.585C273.864 289.738 275.385 289.281 276.906 289.433C278.274 289.585 280.251 291.108 281.772 291.108C283.14 291.26 284.813 290.499 286.181 290.651C287.55 290.803 288.767 292.783 290.135 292.783C291.504 292.935 293.024 291.869 294.393 292.021C295.761 292.021 296.826 292.783 298.194 292.935C299.563 292.935 300.932 292.935 302.452 293.087C303.821 293.087 306.102 291.717 307.47 291.717C308.839 291.717 309.903 291.869 311.424 291.869C312.792 291.869 314.009 292.326 315.377 292.174C316.746 292.021 317.963 291.108 319.331 291.108L323.589 290.803C324.957 290.651 326.478 290.499 327.847 290.347C329.215 290.194 330.888 289.281 332.256 289.281C333.625 289.281 334.994 289.89 336.362 289.89C337.731 289.89 339.251 290.042 340.62 290.042C341.988 290.042 343.509 290.042 344.878 289.89C346.246 289.738 347.615 290.194 348.983 289.89C349.287 289.89 349.744 289.89 350.048 289.89C351.416 289.89 352.937 288.215 354.458 288.063C355.826 287.911 357.195 288.52 358.715 288.215C360.236 287.454 360.084 283.647 357.955 283.647Z" fill="#D2C7DA"/>
<path d="M371.032 194.732C368.752 194.732 366.319 194.732 364.038 194.732C361.757 194.732 359.324 194.884 357.043 194.884C354.762 194.884 351.873 195.341 349.592 195.493C347.311 195.645 345.03 195.188 342.749 195.188C340.468 195.341 338.035 195.645 335.754 195.797L328.911 196.102C326.63 196.254 324.349 195.95 322.068 196.102C319.787 196.254 318.267 196.406 315.986 196.559C313.705 196.711 310.664 196.254 308.383 196.406C306.102 196.559 303.821 196.406 301.54 196.559C299.259 196.711 296.978 197.015 294.697 197.32C292.416 197.624 289.983 198.081 287.702 198.233C285.421 198.538 283.14 198.386 280.859 198.69L274.017 199.604H273.56C273.256 199.604 272.952 199.604 272.648 199.604C270.367 199.604 268.086 200.365 265.805 200.365C263.524 200.365 261.547 201.735 259.267 201.888C256.986 201.888 254.705 202.344 252.424 202.344C250.143 202.344 248.166 203.715 245.733 203.715C243.452 203.715 241.171 203.258 238.89 203.258C236.609 203.258 234.024 203.562 231.743 203.715C229.462 203.867 226.725 203.106 224.292 203.41C222.011 203.715 219.578 204.019 217.297 204.476C213.8 205.085 214.104 208.434 217.601 208.282C219.882 208.13 222.315 208.13 224.596 207.978C226.877 207.825 229.31 207.673 231.591 207.673C233.872 207.521 236.153 206.76 238.586 206.76C240.867 206.607 244.212 207.825 246.493 207.673C248.774 207.521 251.207 206.607 253.64 206.455C255.921 206.303 258.05 208.13 260.331 208.13C262.612 207.978 264.893 206.912 267.174 206.76C269.455 206.607 271.127 207.216 273.256 207.216C275.537 207.064 277.818 206.912 279.947 206.912C282.228 206.76 285.725 205.085 288.006 204.933C290.287 204.78 291.96 204.933 294.241 204.628C296.522 204.476 298.347 204.78 300.628 204.628C302.908 204.476 304.733 203.41 307.014 203.258L313.857 202.649C316.138 202.497 318.419 202.192 320.7 202.04C322.981 201.888 325.566 200.822 327.847 200.822C330.128 200.822 332.257 201.279 334.537 201.279C336.818 201.279 339.099 201.279 341.38 201.279C343.661 201.279 345.942 201.126 348.223 200.974C350.352 200.822 352.633 201.126 354.762 200.974C355.37 200.974 355.978 200.974 356.587 200.974C358.867 200.822 361.453 199.299 363.733 199.147C366.014 198.995 368.143 199.604 370.576 199.299C374.378 198.538 374.53 194.884 371.032 194.732Z" fill="#D2C7DA"/>
<path d="M349.44 259.135L346.854 207.978" stroke="#000E39" stroke-width="0.75" stroke-miterlimit="10" stroke-linecap="round" stroke-linejoin="round"/>
<path d="M270.671 262.484L257.441 216.961" stroke="#000E39" stroke-width="0.75" stroke-miterlimit="10" stroke-linecap="round" stroke-linejoin="round"/>
<path d="M390.041 61.967C459.685 66.3823 509.258 75.0608 509.258 85.2617C509.258 99.878 412.85 111.754 293.785 111.754C174.72 111.754 78.3125 99.878 78.3125 85.2617C78.3125 79.6284 92.6064 74.4518 116.936 70.0364" stroke="#CCBFD5" stroke-miterlimit="10"/>
<path d="M382.285 202.344C480.061 207.064 549.402 218.788 549.402 232.49C549.402 250.304 432.161 264.768 287.55 264.768C142.938 264.768 25.6982 250.304 25.6982 232.49C25.6982 220.919 74.8145 210.871 148.717 205.085" stroke="#CCBFD5" stroke-miterlimit="10"/>
<path d="M360.844 346.985C476.26 351.248 563.392 364.342 563.392 380.024C563.392 399.055 438.396 414.433 284.357 414.433C130.317 414.433 5.16992 398.903 5.16992 379.871C5.16992 367.539 57.4794 356.729 136.248 350.639" stroke="#CCBFD5" stroke-miterlimit="10"/>
<path d="M121.346 487.514C65.3873 493.3 29.8047 501.978 29.8047 511.57C29.8047 528.927 143.7 542.934 284.205 542.934C424.711 542.934 538.606 528.927 538.606 511.57C538.606 498.02 459.533 486.601 361.909 482.186" stroke="#CCBFD5" stroke-miterlimit="10"/>
</g>
<defs>
<clipPath id="clip0_599_1654">
<rect width="564" height="669" fill="white"/>
</clipPath>
</defs>
</svg>
