<svg width="177" height="48" viewBox="0 0 177 48" fill="none" xmlns="http://www.w3.org/2000/svg">
<g clip-path="url(#clip0_47_4573)" filter="url(#filter0_d_47_4573)">
<path d="M13.0869 19.4311C13.288 19.4311 13.5766 19.4755 14.4071 20.015C14.9454 20.365 15.4561 20.7566 15.9348 21.1864L15.9094 26.1059C17.3391 26.0844 18.473 26.093 19.264 26.1059C20.055 26.1188 20.8538 26.0701 21.6491 26.0608C22.145 26.0626 22.6394 26.0076 23.1232 25.897C23.3833 25.8363 23.6394 25.7593 23.8902 25.6666C23.8902 26.078 23.9445 27.6079 25.0954 28.9052C25.6534 29.529 26.364 29.9923 27.1552 30.2483C26.1577 30.6804 25.1166 31.0005 24.0504 31.2029C23.0999 31.38 22.1349 31.4652 21.1685 31.4576C19.0079 31.4705 16.4408 31.4877 13.4863 31.4869C12.806 31.4869 12.3206 31.3438 11.9494 31.1406C11.6153 30.9553 11.3185 30.7079 11.0744 30.4115C10.6417 29.8933 10.352 29.2682 10.2347 28.5996L10.2305 21.1191C10.7214 20.6973 11.2437 20.3146 11.7927 19.9742C12.6092 19.4698 12.8914 19.4304 13.0869 19.4311Z" fill="#651FFF"/>
<path d="M13.0868 12.2104C12.4321 12.2142 11.7983 12.4438 11.2895 12.8616L4.20703 18.0472L6.21668 20.8759C6.44418 21.1813 6.78059 21.3843 7.15386 21.4412C7.52712 21.4982 7.90755 21.4047 8.21364 21.1807L12.2732 18.2261C12.5291 18.0441 12.8364 17.9511 13.1489 17.9612C13.4613 17.9713 13.7622 18.0838 14.0062 18.2819C14.5002 18.6326 15.9982 19.7131 18.0283 21.2286C18.3262 21.421 18.6838 21.4947 19.0321 21.4355C19.3804 21.3763 19.6948 21.1884 19.9145 20.9081L21.9609 18.0458L14.7591 12.7635C14.2725 12.4062 13.6876 12.2127 13.0868 12.2104Z" fill="#00E5FF"/>
<path d="M10.21 4.37637C10.2805 3.85616 10.5063 2.8465 11.3178 2.1245C11.9126 1.60446 12.6706 1.31627 13.4559 1.31161L21.2814 1.33237C24.9676 1.29659 27.34 2.57101 28.3949 3.24578C35.3306 7.68228 34.5834 17.6723 34.5269 18.2969C34.3089 20.7299 33.4847 22.8544 33.3979 23.0669C33.0147 24.0365 32.3627 25.6479 30.9239 27.3181C30.3347 28.002 29.6776 28.6226 28.963 29.1699C28.1312 28.9755 27.3681 28.5529 26.7571 27.9485C25.5413 26.732 25.4094 25.22 25.3868 24.8265C25.8055 24.5146 26.1831 24.1495 26.5102 23.7402C26.7251 23.4641 26.9195 23.172 27.0916 22.8665C29.7695 18.0351 28.0372 12.3728 28.0372 12.3728C27.5679 10.8386 27.0846 9.3016 25.638 8.13094C24.1562 6.92879 22.4873 6.74203 21.7154 6.70768L15.908 6.67262L10.21 6.75562V4.37637Z" fill="#651FFF"/>
<path d="M55.6924 18.9338C55.8115 19.5034 55.9086 20.1068 55.9839 20.7442L41.0081 23.9714C41.4503 25.2436 42.2501 26.1562 43.4073 26.7091C44.5645 27.262 45.8719 27.3813 47.3292 27.0669C48.3357 26.8578 49.2813 26.4172 50.0932 25.7789C50.8986 25.1449 51.4396 24.3671 51.7162 23.4454C52.4044 23.6534 53.8575 24.0828 56.0756 24.7334C55.5741 26.5362 54.5794 28.0138 53.0915 29.1664C51.6035 30.3189 49.8782 31.106 47.9156 31.5277C45.055 32.1441 42.4389 31.6909 40.0675 30.1681C37.6961 28.6454 36.1875 26.3485 35.5416 23.2773C34.8976 20.2061 35.3574 17.5062 36.9211 15.1778C38.4848 12.8494 40.6969 11.3767 43.5576 10.7599C46.4173 10.1431 48.9936 10.5834 51.2864 12.0808C53.5793 13.5783 55.048 15.8626 55.6924 18.9338ZM40.2242 20.4365L50.3197 18.2605C49.8436 16.9667 49.0792 16.0467 48.0264 15.5005C46.9736 14.9543 45.8025 14.8203 44.513 15.0984C43.1385 15.3946 42.0605 16.0207 41.2791 16.9767C40.4977 17.9327 40.1461 19.0872 40.2242 20.4401V20.4365Z" fill="#651FFF"/>
<path d="M70.8235 10.9302H76.1454V23.0948C76.1454 28.5331 72.0485 31.9607 66.5156 31.9607C60.9827 31.9607 56.8857 28.5345 56.8857 23.0948V10.9302H62.2077V22.6225C62.2077 25.3632 63.8123 27.1621 66.512 27.1621C69.2118 27.1621 70.8235 25.3632 70.8235 22.6225V10.9302Z" fill="#651FFF"/>
<path d="M77.1412 10.9302H82.4624V12.9002C84.1527 11.1871 86.3912 10.3306 89.178 10.3306C95.0489 10.3306 98.9348 15.0848 98.9348 21.2072C98.9348 27.3295 95.0489 32 89.178 32C86.6441 32 84.1101 31.2286 82.4624 29.6873V39.9284L79.781 39.9671C79.129 39.9429 78.5055 39.69 78.0169 39.2515C77.1645 38.4751 77.1067 37.439 77.0996 37.2479L77.1412 10.9302ZM88.0786 15.2988C84.6577 15.2988 82.6727 17.7395 82.6727 21.2093C82.6727 24.5925 84.7 27.034 88.0786 27.034C91.4572 27.034 93.4415 24.5925 93.4415 21.2093C93.4443 17.7395 91.4586 15.2988 88.08 15.2988H88.0786Z" fill="#651FFF"/>
<path d="M100.736 0.894452C101.22 0.424203 101.851 0.141056 102.519 0.0944519H105.227V31.3596H99.9059C99.9002 21.8249 99.8948 12.29 99.8896 2.75492C99.9398 2.05109 100.241 1.38981 100.736 0.894452Z" fill="#651FFF"/>
<path d="M117.096 10.2877C123.642 10.2877 128.077 15.0419 128.077 21.0805C128.077 27.205 123.642 31.9571 117.096 31.9571C110.507 31.9571 106.158 27.2029 106.158 21.0805C106.157 15.0419 110.507 10.2877 117.096 10.2877ZM117.096 15.2558C113.675 15.2558 111.563 17.6973 111.563 21.0805C111.563 24.5066 113.675 26.9911 117.096 26.9911C120.601 26.9911 122.713 24.5496 122.713 21.0805C122.713 17.6973 120.601 15.2558 117.096 15.2558Z" fill="#651FFF"/>
<path d="M137.536 10.2877C140.281 10.2877 142.52 11.1442 144.252 12.8572V10.9302H149.572V31.3596H144.252V29.3896C142.562 31.1027 140.324 31.9592 137.536 31.9592C131.75 31.9592 127.78 27.1191 127.78 21.0827C127.78 15.0462 131.75 10.2877 137.536 10.2877ZM138.635 15.2558C135.299 15.2558 133.272 17.6973 133.272 21.0805C133.272 24.5066 135.257 26.9911 138.635 26.9911C142.013 26.9911 144.041 24.5496 144.041 21.0805C144.04 17.6973 142.013 15.2558 138.635 15.2558Z" fill="#651FFF"/>
<path d="M160.298 10.2877C162.833 10.2877 165.367 11.0583 167.014 12.6004V0.0944519H172.336L172.356 28.7299C172.369 28.9066 172.432 30.1166 171.509 31.0197C171.029 31.4811 170.405 31.7592 169.745 31.8068L166.993 31.7352V29.3739C166.153 30.2101 165.159 30.8703 164.068 31.3166C162.422 31.9878 161.026 31.9606 160.298 31.9606C154.428 31.9606 150.542 27.2064 150.542 21.0841C150.542 14.9617 154.43 10.2877 160.298 10.2877ZM161.397 15.2558C158.018 15.2558 156.034 17.6973 156.034 21.0805C156.034 24.5496 158.019 26.9911 161.397 26.9911C164.818 26.9911 166.803 24.5496 166.803 21.0805C166.805 17.6973 164.778 15.2558 161.399 15.2558H161.397Z" fill="#651FFF"/>
</g>
<defs>
<filter id="filter0_d_47_4573" x="0" y="0" width="177" height="48" filterUnits="userSpaceOnUse" color-interpolation-filters="sRGB">
<feFlood flood-opacity="0" result="BackgroundImageFix"/>
<feColorMatrix in="SourceAlpha" type="matrix" values="0 0 0 0 0 0 0 0 0 0 0 0 0 0 0 0 0 0 127 0" result="hardAlpha"/>
<feOffset dy="4"/>
<feGaussianBlur stdDeviation="2"/>
<feComposite in2="hardAlpha" operator="out"/>
<feColorMatrix type="matrix" values="0 0 0 0 0 0 0 0 0 0 0 0 0 0 0 0 0 0 0.25 0"/>
<feBlend mode="normal" in2="BackgroundImageFix" result="effect1_dropShadow_47_4573"/>
<feBlend mode="normal" in="SourceGraphic" in2="effect1_dropShadow_47_4573" result="shape"/>
</filter>
<clipPath id="clip0_47_4573">
<rect width="169" height="40" fill="white" transform="translate(4)"/>
</clipPath>
</defs>
</svg>
