<svg width="66" height="25" viewBox="0 0 66 25" fill="none" xmlns="http://www.w3.org/2000/svg">
<g clip-path="url(#clip0_94_2204)">
<rect y="0.446289" width="65.625" height="24.1071" rx="4" fill="#E2E8F0"/>
<path d="M0 4.44629C0 2.23715 1.79086 0.446289 4 0.446289H24.7642V24.5534H4C1.79086 24.5534 0 22.7626 0 20.5534V4.44629Z" fill="#2050E0"/>
<path d="M12.3821 4.0625L12.6629 4.94721H13.5717L12.8365 5.49397L13.1173 6.37868L12.3821 5.83157L11.647 6.37868L11.9278 5.49397L11.1924 4.94721H12.1012L12.3821 4.0625Z" fill="#F8D12E"/>
<path d="M12.3821 18.6211L12.6629 19.5061H13.5717L12.8365 20.0527L13.1173 20.9373L12.3821 20.3906L11.647 20.9373L11.9278 20.0527L11.1924 19.5061H12.1012L12.3821 18.6211Z" fill="#F8D12E"/>
<path d="M16.1213 5.38623L16.402 6.27093H17.3109L16.5756 6.81791L16.8565 7.70241L16.1213 7.15543L15.386 7.70241L15.6668 6.81791L14.9316 6.27093H15.8406L16.1213 5.38623Z" fill="#F8D12E"/>
<path d="M19.1439 14.9106L19.4245 15.7956H20.3334L19.5981 16.3424L19.8791 17.2268L19.1439 16.6803L18.4086 17.2268L18.6894 16.3424L17.9541 15.7956H18.863L19.1439 14.9106Z" fill="#F8D12E"/>
<path d="M19.8606 11.3418L20.1413 12.2264H21.0502L20.3149 12.7731L20.5957 13.658L19.8606 13.1115L19.1254 13.658L19.4064 12.7731L18.6709 12.2264H19.5796L19.8606 11.3418Z" fill="#F8D12E"/>
<path d="M4.90466 11.3418L5.18536 12.2264H6.09415L5.35881 12.7731L5.63985 13.658L4.90466 13.1115L4.16928 13.658L4.45017 12.7731L3.71484 12.2264H4.62377L4.90466 11.3418Z" fill="#F8D12E"/>
<path d="M5.5238 14.9106L5.8045 15.7956H6.71328L5.97815 16.3424L6.2588 17.2268L5.5238 16.6803L4.78847 17.2268L5.06932 16.3424L4.33398 15.7956H5.24296L5.5238 14.9106Z" fill="#F8D12E"/>
<path d="M19.1439 7.67871L19.4245 8.56371H20.3334L19.5981 9.11043L19.8791 9.99489L19.1439 9.44836L18.4086 9.99489L18.6894 9.11043L17.9541 8.56371H18.863L19.1439 7.67871Z" fill="#F8D12E"/>
<path d="M5.83337 7.67871L6.11407 8.56371H7.02285L6.28772 9.11043L6.56837 9.99489L5.83337 9.44836L5.09804 9.99489L5.37889 9.11043L4.64355 8.56371H5.55253L5.83337 7.67871Z" fill="#F8D12E"/>
<path d="M16.8011 17.9595L17.0817 18.844H17.9906L17.2552 19.3911L17.5362 20.2756L16.8011 19.729L16.0656 20.2756L16.3466 19.3911L15.6113 18.844H16.5202L16.8011 17.9595Z" fill="#F8D12E"/>
<path d="M8.64378 5.38623L8.92442 6.27093H9.8334L9.09807 6.81791L9.37911 7.70241L8.64378 7.15543L7.90859 7.70241L8.18943 6.81791L7.4541 6.27093H8.36289L8.64378 5.38623Z" fill="#F8D12E"/>
<path d="M7.96399 17.9595L8.24481 18.8445H9.15372L8.41844 19.391L8.69926 20.2756L7.96399 19.7293L7.22887 20.2756L7.50969 19.391L6.77441 18.8445H7.68312L7.96399 17.9595Z" fill="#F8D12E"/>
<path fill-rule="evenodd" clip-rule="evenodd" d="M29.0977 9.84544C29.0977 11.5474 30.4369 12.6152 32.082 12.6152C33.1237 12.6152 33.9256 12.2058 34.5208 11.5715V9.47614H31.8588V10.6242H33.1237V11.0738C32.9005 11.2504 32.5119 11.3949 32.082 11.3949C31.1809 11.3949 30.5444 10.7205 30.5444 9.84544C30.5444 8.97036 31.1809 8.29598 32.082 8.29598C32.6028 8.29598 33.0245 8.57697 33.2477 8.93022L34.4381 8.32007C34.033 7.65372 33.289 7.07568 32.082 7.07568C30.4369 7.07568 29.0977 8.14345 29.0977 9.84544ZM35.3557 12.5189V7.16399H37.6705C39.4066 7.16399 40.6549 8.17556 40.6549 9.83741C40.6549 11.4993 39.4066 12.5189 37.6788 12.5189H35.3557ZM36.7777 11.3146H37.6705C38.6377 11.3146 39.1999 10.6322 39.1999 9.83741C39.1999 9.0105 38.6873 8.36824 37.6788 8.36824H36.7777V11.3146ZM41.3658 12.5189V7.16399H44.127C45.367 7.16399 46.0449 7.97485 46.0449 8.94627C46.0449 9.90967 45.367 10.7045 44.127 10.7045H42.7877V12.5189H41.3658ZM44.5982 8.93825C44.5982 8.56894 44.3171 8.3281 43.9369 8.3281H42.7877V9.53234H43.9369C44.3171 9.53234 44.5982 9.29952 44.5982 8.93825ZM49.7568 12.5189L48.8309 10.7045H48.1034V12.5189H46.6815V7.16399H49.4427C50.6662 7.16399 51.3606 7.95077 51.3606 8.94627C51.3606 9.87755 50.7736 10.3753 50.2611 10.5519L51.3854 12.5189H49.7568ZM49.9139 8.93022C49.9139 8.56092 49.5997 8.3281 49.2277 8.3281H48.1034V9.53234H49.2277C49.5997 9.53234 49.9139 9.29952 49.9139 8.93022Z" fill="#2B3945"/>
<path fill-rule="evenodd" clip-rule="evenodd" d="M14.0621 11.9792H14.3274C14.6204 11.9792 14.8581 12.2185 14.8581 12.5134V14.6502C14.8581 14.9451 14.6204 15.1844 14.3274 15.1844H10.4359C10.143 15.1844 9.90527 14.9451 9.90527 14.6502V12.5134C9.90527 12.2185 10.143 11.9792 10.4359 11.9792H10.7013V11.1779C10.7013 10.2453 11.4552 9.48633 12.3817 9.48633C13.3081 9.48633 14.0621 10.2453 14.0621 11.1779V11.9792ZM11.5857 11.1779V11.9792H13.1777V11.1779C13.1777 10.7361 12.8206 10.3767 12.3817 10.3767C11.9428 10.3767 11.5857 10.7361 11.5857 11.1779Z" fill="white"/>
<path d="M32.281 16.4249C32.2547 16.342 32.2186 16.2658 32.1725 16.1963C32.1265 16.1268 32.0673 16.0666 31.995 16.0158C31.9227 15.965 31.8372 15.9262 31.7386 15.8995C31.6433 15.8701 31.5315 15.8554 31.4033 15.8554C31.2159 15.8554 31.0532 15.8861 30.9151 15.9476C30.7803 16.0091 30.6702 16.092 30.5847 16.1963C30.4992 16.2979 30.4351 16.4142 30.3924 16.5452C30.3529 16.6762 30.3332 16.8099 30.3332 16.9463C30.3332 17.0827 30.3529 17.2163 30.3924 17.3474C30.4351 17.4784 30.4992 17.596 30.5847 17.7003C30.6702 17.8019 30.7803 17.8835 30.9151 17.945C31.0532 18.0064 31.2159 18.0372 31.4033 18.0372C31.5413 18.0372 31.663 18.0185 31.7682 17.981C31.8734 17.9409 31.9638 17.8875 32.0394 17.8206C32.115 17.7511 32.1742 17.6709 32.2169 17.58C32.2597 17.4891 32.2876 17.3915 32.3007 17.2872H32.9024C32.8892 17.4583 32.8432 17.6147 32.7643 17.7564C32.6887 17.8982 32.5851 18.0212 32.4536 18.1254C32.3221 18.227 32.1676 18.3059 31.9901 18.3621C31.8126 18.4182 31.617 18.4463 31.4033 18.4463C31.1403 18.4463 30.9036 18.4075 30.6932 18.33C30.4861 18.2498 30.3102 18.1415 30.1655 18.0051C30.0209 17.8687 29.9091 17.7097 29.8302 17.5278C29.7546 17.346 29.7168 17.1522 29.7168 16.9463C29.7168 16.7431 29.7546 16.5506 29.8302 16.3687C29.9091 16.1869 30.0209 16.0278 30.1655 15.8915C30.3102 15.7551 30.4861 15.6468 30.6932 15.5666C30.9036 15.4864 31.1403 15.4463 31.4033 15.4463C31.6005 15.4463 31.7863 15.469 31.9605 15.5145C32.1347 15.5573 32.2876 15.6214 32.4191 15.707C32.5539 15.7899 32.6624 15.8915 32.7446 16.0118C32.8267 16.1321 32.8777 16.2698 32.8974 16.4249H32.281Z" fill="#2B3945"/>
<path d="M35.0853 15.8554C34.8979 15.8554 34.7352 15.8861 34.5971 15.9476C34.4623 16.0091 34.3522 16.092 34.2667 16.1963C34.1812 16.2979 34.1171 16.4142 34.0744 16.5452C34.0349 16.6762 34.0152 16.8099 34.0152 16.9463C34.0152 17.0827 34.0349 17.2163 34.0744 17.3474C34.1171 17.4784 34.1812 17.596 34.2667 17.7003C34.3522 17.8019 34.4623 17.8835 34.5971 17.945C34.7352 18.0064 34.8979 18.0372 35.0853 18.0372C35.2727 18.0372 35.4338 18.0064 35.5686 17.945C35.7066 17.8835 35.8184 17.8019 35.9039 17.7003C35.9893 17.596 36.0518 17.4784 36.0913 17.3474C36.134 17.2163 36.1554 17.0827 36.1554 16.9463C36.1554 16.8099 36.134 16.6762 36.0913 16.5452C36.0518 16.4142 35.9893 16.2979 35.9039 16.1963C35.8184 16.092 35.7066 16.0091 35.5686 15.9476C35.4338 15.8861 35.2727 15.8554 35.0853 15.8554ZM35.0853 15.4463C35.3483 15.4463 35.5833 15.4864 35.7905 15.5666C36.0009 15.6468 36.1784 15.7551 36.323 15.8915C36.4677 16.0278 36.5778 16.1869 36.6534 16.3687C36.7323 16.5506 36.7718 16.7431 36.7718 16.9463C36.7718 17.1522 36.7323 17.346 36.6534 17.5278C36.5778 17.7097 36.4677 17.8687 36.323 18.0051C36.1784 18.1415 36.0009 18.2498 35.7905 18.33C35.5833 18.4075 35.3483 18.4463 35.0853 18.4463C34.8223 18.4463 34.5856 18.4075 34.3752 18.33C34.1681 18.2498 33.9922 18.1415 33.8476 18.0051C33.7029 17.8687 33.5911 17.7097 33.5122 17.5278C33.4366 17.346 33.3988 17.1522 33.3988 16.9463C33.3988 16.7431 33.4366 16.5506 33.5122 16.3687C33.5911 16.1869 33.7029 16.0278 33.8476 15.8915C33.9922 15.7551 34.1681 15.6468 34.3752 15.5666C34.5856 15.4864 34.8223 15.4463 35.0853 15.4463Z" fill="#2B3945"/>
<path d="M37.4462 15.5145H38.3141L39.2855 17.7564H39.2954L40.2422 15.5145H41.1002V18.3781H40.5134V16.1682H40.5035L39.5271 18.3781H39.0192L38.0429 16.1682H38.033V18.3781H37.4462V15.5145Z" fill="#2B3945"/>
<path d="M41.9615 15.5145H43.5149C43.7647 15.5145 43.9685 15.5439 44.1263 15.6027C44.2841 15.6615 44.4058 15.7351 44.4912 15.8233C44.5767 15.9115 44.6343 16.0078 44.6638 16.1121C44.6967 16.2163 44.7132 16.3126 44.7132 16.4008C44.7132 16.4891 44.6967 16.5853 44.6638 16.6896C44.6343 16.7912 44.5767 16.8861 44.4912 16.9744C44.4058 17.0626 44.2841 17.1361 44.1263 17.195C43.9685 17.2511 43.7647 17.2792 43.5149 17.2792H42.5779V18.3781H41.9615V15.5145ZM42.5779 16.8701H43.4804C43.5494 16.8701 43.6201 16.8621 43.6924 16.846C43.7647 16.83 43.8305 16.8046 43.8896 16.7698C43.9521 16.7324 44.0014 16.6843 44.0376 16.6254C44.077 16.5639 44.0968 16.4877 44.0968 16.3968C44.0968 16.3032 44.0803 16.2257 44.0474 16.1642C44.0146 16.1027 43.9702 16.0546 43.9143 16.0198C43.8584 15.9824 43.7943 15.957 43.722 15.9436C43.6497 15.9302 43.5724 15.9236 43.4902 15.9236H42.5779V16.8701Z" fill="#2B3945"/>
<path d="M45.3739 15.5145H45.9903V17.945H47.7803V18.3781H45.3739V15.5145Z" fill="#2B3945"/>
<path d="M48.3288 15.5145H48.9452V18.3781H48.3288V15.5145Z" fill="#2B3945"/>
<path d="M50.7664 15.5145H51.4222L52.7783 18.3781H52.1175L51.7871 17.6201H50.3817L50.0513 18.3781H49.4152L50.7664 15.5145ZM50.5494 17.2391H51.6244L51.0967 16.0078H51.0819L50.5494 17.2391Z" fill="#2B3945"/>
<path d="M53.2122 15.5145H53.8631L55.4707 17.6241H55.4805V15.5145H56.0674V18.3781H55.4164L53.8138 16.2725H53.799V18.3781H53.2122V15.5145Z" fill="#2B3945"/>
<path d="M56.5835 15.5145H59.4338V15.9476H58.3144V18.3781H57.698V15.9476H56.5835V15.5145Z" fill="#2B3945"/>
</g>
<defs>
<clipPath id="clip0_94_2204">
<rect width="65.625" height="24.1071" fill="white" transform="translate(0 0.446289)"/>
</clipPath>
</defs>
</svg>
