<svg width="57" height="23" viewBox="0 0 57 23" fill="none" xmlns="http://www.w3.org/2000/svg">
<path d="M4.0957 9.14524C4.0957 8.58983 4.5957 8.37621 5.42383 8.37621C6.61133 8.37621 8.11133 8.70376 9.29883 9.28765V5.94096C8.00195 5.471 6.7207 5.28587 5.42383 5.28587C2.25195 5.28587 0.142578 6.79543 0.142578 9.31613C0.142578 13.2467 6.08008 12.6201 6.08008 14.3148C6.08008 14.9699 5.45508 15.1835 4.58008 15.1835C3.2832 15.1835 1.62695 14.6993 0.314453 14.0442V17.4336C1.76758 18.0033 3.23633 18.2454 4.58008 18.2454C7.83008 18.2454 10.0645 16.7785 10.0645 14.2293C10.0488 9.98547 4.0957 10.7403 4.0957 9.14524ZM14.6582 2.43762L10.8457 3.17817L10.8301 14.5854C10.8301 16.6931 12.5645 18.2454 14.877 18.2454C16.1582 18.2454 17.0957 18.0317 17.6113 17.7754V14.8844C17.1113 15.0696 14.6426 15.7247 14.6426 13.617V8.56135H17.6113V5.52797H14.6426L14.6582 2.43762ZM22.4707 6.58182L22.2207 5.52797H18.8457V17.989H22.752V9.54399C23.6738 8.44742 25.2363 8.64679 25.7207 8.80345V5.52797C25.2207 5.35707 23.3926 5.04377 22.4707 6.58182ZM26.6738 5.52797H30.5957V17.989H26.6738V5.52797ZM26.6738 4.44564L30.5957 3.67661V0.785645L26.6738 1.54043V4.44564ZM38.752 5.28587C37.2207 5.28587 36.2363 5.94096 35.6895 6.39668L35.4863 5.51373H32.0488V22.119L35.9551 21.3642L35.9707 17.3339C36.5332 17.7042 37.3613 18.2311 38.7363 18.2311C41.5332 18.2311 44.0801 16.1804 44.0801 11.6659C44.0645 7.53598 41.4863 5.28587 38.752 5.28587ZM37.8145 15.0981C36.8926 15.0981 36.3457 14.799 35.9707 14.4287L35.9551 9.14524C36.3613 8.73224 36.9238 8.44742 37.8145 8.44742C39.2363 8.44742 40.2207 9.90002 40.2207 11.7656C40.2207 13.6739 39.252 15.0981 37.8145 15.0981ZM56.3926 11.8083C56.3926 8.16259 54.4551 5.28587 50.752 5.28587C47.0332 5.28587 44.7832 8.16259 44.7832 11.7799C44.7832 16.0665 47.4395 18.2311 51.252 18.2311C53.1113 18.2311 54.5176 17.8466 55.5801 17.3054V14.4572C54.5176 14.9414 53.2988 15.2405 51.752 15.2405C50.2363 15.2405 48.8926 14.7563 48.7207 13.0758H56.3613C56.3613 12.8907 56.3926 12.1501 56.3926 11.8083ZM48.6738 10.4554C48.6738 8.84617 49.752 8.17683 50.7363 8.17683C51.6895 8.17683 52.7051 8.84617 52.7051 10.4554H48.6738Z" fill="#6772E5"/>
</svg>
