<svg width="64" height="64" viewBox="0 0 64 64" fill="none" xmlns="http://www.w3.org/2000/svg">
<path d="M64 32C64 49.6731 49.6731 64 32 64C14.3269 64 0 49.6731 0 32C0 14.3269 14.3269 0 32 0C49.6731 0 64 14.3269 64 32Z" fill="#651FFF"/>
<path d="M16.9102 34.5C16.9102 30.372 17.7022 27.12 19.2862 24.744C20.8942 22.368 23.4742 21.18 27.0262 21.18C30.5782 21.18 33.1462 22.368 34.7302 24.744C36.3382 27.12 37.1422 30.372 37.1422 34.5C37.1422 38.676 36.3382 41.952 34.7302 44.328C33.1462 46.704 30.5782 47.892 27.0262 47.892C23.4742 47.892 20.8942 46.704 19.2862 44.328C17.7022 41.952 16.9102 38.676 16.9102 34.5ZM31.0942 34.5C31.0942 32.076 30.8302 30.216 30.3022 28.92C29.7742 27.6 28.6822 26.94 27.0262 26.94C25.3702 26.94 24.2782 27.6 23.7502 28.92C23.2222 30.216 22.9582 32.076 22.9582 34.5C22.9582 36.132 23.0542 37.488 23.2462 38.568C23.4382 39.624 23.8222 40.488 24.3982 41.16C24.9982 41.808 25.8742 42.132 27.0262 42.132C28.1782 42.132 29.0422 41.808 29.6182 41.16C30.2182 40.488 30.6142 39.624 30.8062 38.568C30.9982 37.488 31.0942 36.132 31.0942 34.5ZM36.1466 27.444V21.72H46.1186V48H39.7106V27.444H36.1466Z" fill="white"/>
</svg>
