<svg width="315" height="315" viewBox="0 0 315 315" fill="none" xmlns="http://www.w3.org/2000/svg">
<path d="M276.149 105.431H219.877V233.081H276.149V105.431Z" stroke="#263238" stroke-width="0.75" stroke-linecap="round" stroke-linejoin="round"/>
<path d="M271.21 110.37H224.816V228.142H271.21V110.37Z" stroke="#263238" stroke-width="0.75" stroke-linecap="round" stroke-linejoin="round"/>
<path d="M230.089 162.37L228.822 164.569" stroke="#263238" stroke-width="0.75" stroke-linecap="round" stroke-linejoin="round"/>
<path d="M243.407 139.312L231.551 159.85" stroke="#263238" stroke-width="0.75" stroke-linecap="round" stroke-linejoin="round"/>
<path d="M254.288 120.462L245.304 136.023" stroke="#263238" stroke-width="0.75" stroke-linecap="round" stroke-linejoin="round"/>
<path d="M256.19 117.174L255.232 118.824" stroke="#263238" stroke-width="0.75" stroke-linecap="round" stroke-linejoin="round"/>
<path d="M233.862 218.345L232.785 220.21" stroke="#263238" stroke-width="0.75" stroke-linecap="round" stroke-linejoin="round"/>
<path d="M236.357 214.024L235.217 216.008" stroke="#263238" stroke-width="0.75" stroke-linecap="round" stroke-linejoin="round"/>
<path d="M251.572 187.671L238.802 209.796" stroke="#263238" stroke-width="0.75" stroke-linecap="round" stroke-linejoin="round"/>
<path d="M262.881 168.084L252.883 185.409" stroke="#263238" stroke-width="0.75" stroke-linecap="round" stroke-linejoin="round"/>
<path d="M265.356 163.8L264.367 165.514" stroke="#263238" stroke-width="0.75" stroke-linecap="round" stroke-linejoin="round"/>
<path d="M248.012 204.252L238.802 220.21" stroke="#263238" stroke-width="0.75" stroke-linecap="round" stroke-linejoin="round"/>
<path d="M259.794 183.847L249.354 201.928" stroke="#263238" stroke-width="0.75" stroke-linecap="round" stroke-linejoin="round"/>
<path d="M262.245 179.607L261.01 181.742" stroke="#263238" stroke-width="0.75" stroke-linecap="round" stroke-linejoin="round"/>
<path d="M228.822 178.889L227.424 181.314" stroke="#263238" stroke-width="0.75" stroke-linecap="round" stroke-linejoin="round"/>
<path d="M241.064 157.689L229.944 176.948" stroke="#263238" stroke-width="0.75" stroke-linecap="round" stroke-linejoin="round"/>
<path d="M256.341 131.229L242.374 155.415" stroke="#263238" stroke-width="0.75" stroke-linecap="round" stroke-linejoin="round"/>
<path d="M265.52 115.328L257.418 129.364" stroke="#263238" stroke-width="0.75" stroke-linecap="round" stroke-linejoin="round"/>
<path d="M95.1241 105.431H38.8525V233.081H95.1241V105.431Z" stroke="#263238" stroke-width="0.75" stroke-linecap="round" stroke-linejoin="round"/>
<path d="M90.1852 110.37H43.792V228.142H90.1852V110.37Z" stroke="#263238" stroke-width="0.75" stroke-linecap="round" stroke-linejoin="round"/>
<path d="M49.0651 162.37L47.7988 164.569" stroke="#263238" stroke-width="0.75" stroke-linecap="round" stroke-linejoin="round"/>
<path d="M62.3771 139.312L50.5205 159.85" stroke="#263238" stroke-width="0.75" stroke-linecap="round" stroke-linejoin="round"/>
<path d="M73.2631 120.462L64.2793 136.023" stroke="#263238" stroke-width="0.75" stroke-linecap="round" stroke-linejoin="round"/>
<path d="M75.1593 117.174L74.208 118.824" stroke="#263238" stroke-width="0.75" stroke-linecap="round" stroke-linejoin="round"/>
<path d="M52.839 218.345L51.7617 220.21" stroke="#263238" stroke-width="0.75" stroke-linecap="round" stroke-linejoin="round"/>
<path d="M55.3331 214.024L54.1865 216.008" stroke="#263238" stroke-width="0.75" stroke-linecap="round" stroke-linejoin="round"/>
<path d="M70.5479 187.671L57.7715 209.796" stroke="#263238" stroke-width="0.75" stroke-linecap="round" stroke-linejoin="round"/>
<path d="M81.856 168.084L71.8516 185.409" stroke="#263238" stroke-width="0.75" stroke-linecap="round" stroke-linejoin="round"/>
<path d="M84.3323 163.8L83.3369 165.514" stroke="#263238" stroke-width="0.75" stroke-linecap="round" stroke-linejoin="round"/>
<path d="M66.9884 204.252L57.7715 220.21" stroke="#263238" stroke-width="0.75" stroke-linecap="round" stroke-linejoin="round"/>
<path d="M78.7692 183.847L68.3301 201.928" stroke="#263238" stroke-width="0.75" stroke-linecap="round" stroke-linejoin="round"/>
<path d="M81.2139 179.607L79.9854 181.742" stroke="#263238" stroke-width="0.75" stroke-linecap="round" stroke-linejoin="round"/>
<path d="M47.7985 178.889L46.3936 181.314" stroke="#263238" stroke-width="0.75" stroke-linecap="round" stroke-linejoin="round"/>
<path d="M60.0336 157.689L48.9141 176.948" stroke="#263238" stroke-width="0.75" stroke-linecap="round" stroke-linejoin="round"/>
<path d="M75.3104 131.229L61.3496 155.415" stroke="#263238" stroke-width="0.75" stroke-linecap="round" stroke-linejoin="round"/>
<path d="M84.4895 115.328L76.3877 129.364" stroke="#263238" stroke-width="0.75" stroke-linecap="round" stroke-linejoin="round"/>
<path d="M18.585 286.291H296.415" stroke="#263238" stroke-linecap="round" stroke-linejoin="round"/>
<path d="M115.095 236.382H110.275V252.769H115.095V236.382Z" fill="#651FFF"/>
<path opacity="0.2" d="M115.095 236.382H110.275V252.769H115.095V236.382Z" fill="black"/>
<path d="M119.92 238.184H115.101V252.769H119.92V238.184Z" fill="#651FFF"/>
<path d="M125.937 238.184H122.535V252.769H125.937V238.184Z" fill="#651FFF"/>
<path opacity="0.9" d="M125.937 238.184H122.535V252.769H125.937V238.184Z" fill="white"/>
<path d="M122.541 236.647H119.454V252.775H122.541V236.647Z" fill="#651FFF"/>
<path opacity="0.1" d="M122.541 236.647H119.454V252.775H122.541V236.647Z" fill="black"/>
<path d="M130.763 236.382H125.943V252.769H130.763V236.382Z" fill="#651FFF"/>
<path d="M135.582 238.184H130.763V252.769H135.582V238.184Z" fill="#651FFF"/>
<path opacity="0.2" d="M135.582 238.184H130.763V252.769H135.582V238.184Z" fill="#263238"/>
<path d="M141.605 238.184H138.203V252.769H141.605V238.184Z" fill="#651FFF"/>
<path opacity="0.8" d="M141.605 238.184H138.203V252.769H141.605V238.184Z" fill="white"/>
<path d="M138.203 236.647H135.116V252.775H138.203V236.647Z" fill="#651FFF"/>
<path opacity="0.1" d="M138.203 236.647H135.116V252.775H138.203V236.647Z" fill="black"/>
<path d="M164.6 252.775H169.42V236.389H164.6V252.775Z" fill="#651FFF"/>
<path opacity="0.2" d="M164.6 252.775H169.42V236.389H164.6V252.775Z" fill="black"/>
<path d="M159.774 252.775H164.594V238.19H159.774V252.775Z" fill="#651FFF"/>
<path d="M153.758 252.775H157.16V238.19H153.758V252.775Z" fill="#651FFF"/>
<path opacity="0.9" d="M153.758 252.775H157.16V238.19H153.758V252.775Z" fill="white"/>
<path d="M157.153 252.769H160.24V236.641H157.153V252.769Z" fill="#651FFF"/>
<path opacity="0.1" d="M157.153 252.769H160.24V236.641H157.153V252.769Z" fill="black"/>
<path d="M148.932 252.775H153.752V236.389H148.932V252.775Z" fill="#651FFF"/>
<path d="M144.112 252.775H148.932V238.19H144.112V252.775Z" fill="#651FFF"/>
<path opacity="0.2" d="M144.112 252.775H148.932V238.19H144.112V252.775Z" fill="#263238"/>
<path d="M141.492 252.769H144.579V236.641H141.492V252.769Z" fill="#651FFF"/>
<path opacity="0.1" d="M141.492 252.769H144.579V236.641H141.492V252.769Z" fill="black"/>
<path d="M192.383 252.775H197.202V236.389H192.383V252.775Z" fill="#651FFF"/>
<path opacity="0.2" d="M192.383 252.775H197.202V236.389H192.383V252.775Z" fill="black"/>
<path d="M187.557 252.775H192.377V238.19H187.557V252.775Z" fill="#651FFF"/>
<path d="M181.54 252.775H184.942V238.19H181.54V252.775Z" fill="#651FFF"/>
<path opacity="0.9" d="M181.54 252.775H184.942V238.19H181.54V252.775Z" fill="white"/>
<path d="M184.936 252.769H188.023V236.641H184.936V252.769Z" fill="#651FFF"/>
<path opacity="0.1" d="M184.936 252.769H188.023V236.641H184.936V252.769Z" fill="black"/>
<path d="M176.715 252.775H181.534V236.389H176.715V252.775Z" fill="#651FFF"/>
<path d="M200.34 252.196L203.506 251.348L199.245 235.453L196.08 236.301L200.34 252.196Z" fill="#651FFF"/>
<path d="M171.895 252.775H176.715V238.19H171.895V252.775Z" fill="#651FFF"/>
<path opacity="0.2" d="M171.895 252.775H176.715V238.19H171.895V252.775Z" fill="#263238"/>
<path d="M169.274 252.769H172.361V236.641H169.274V252.769Z" fill="#651FFF"/>
<path opacity="0.1" d="M169.274 252.769H172.361V236.641H169.274V252.769Z" fill="black"/>
<path d="M201.954 274.061L205.191 273.193L200.95 257.365L197.713 258.233L201.954 274.061Z" fill="#651FFF"/>
<path opacity="0.2" d="M201.954 274.061L205.191 273.193L200.95 257.365L197.713 258.233L201.954 274.061Z" fill="black"/>
<path d="M193.637 273.899H198.456V259.314H193.637V273.899Z" fill="#651FFF"/>
<path d="M187.608 273.899H191.01V259.314H187.608V273.899Z" fill="#651FFF"/>
<path opacity="0.9" d="M187.608 273.899H191.01V259.314H187.608V273.899Z" fill="white"/>
<path d="M191.01 273.905H194.097V257.777H191.01V273.905Z" fill="#651FFF"/>
<path opacity="0.1" d="M191.01 273.905H194.097V257.777H191.01V273.905Z" fill="black"/>
<path d="M182.795 273.905H187.614V257.519H182.795V273.905Z" fill="#651FFF"/>
<path d="M177.969 273.899H182.788V259.314H177.969V273.899Z" fill="#651FFF"/>
<path opacity="0.2" d="M177.969 273.899H182.788V259.314H177.969V273.899Z" fill="#263238"/>
<path d="M171.952 273.899H175.354V259.314H171.952V273.899Z" fill="#651FFF"/>
<path opacity="0.8" d="M171.952 273.899H175.354V259.314H171.952V273.899Z" fill="white"/>
<path d="M175.348 273.905H178.435V257.777H175.348V273.905Z" fill="#651FFF"/>
<path opacity="0.1" d="M175.348 273.905H178.435V257.777H175.348V273.905Z" fill="black"/>
<path d="M148.957 257.519H144.138V273.905H148.957V257.519Z" fill="#651FFF"/>
<path opacity="0.2" d="M148.957 257.519H144.138V273.905H148.957V257.519Z" fill="black"/>
<path d="M153.777 259.321H148.957V273.905H153.777V259.321Z" fill="#651FFF"/>
<path d="M159.799 259.321H156.397V273.905H159.799V259.321Z" fill="#651FFF"/>
<path opacity="0.9" d="M159.799 259.321H156.397V273.905H159.799V259.321Z" fill="white"/>
<path d="M156.398 257.777H153.311V273.905H156.398V257.777Z" fill="#651FFF"/>
<path opacity="0.1" d="M156.398 257.777H153.311V273.905H156.398V257.777Z" fill="black"/>
<path d="M164.619 257.519H159.8V273.905H164.619V257.519Z" fill="#651FFF"/>
<path d="M169.439 259.321H164.619V273.905H169.439V259.321Z" fill="#651FFF"/>
<path opacity="0.2" d="M169.439 259.321H164.619V273.905H169.439V259.321Z" fill="#263238"/>
<path d="M172.06 257.777H168.973V273.905H172.06V257.777Z" fill="#651FFF"/>
<path opacity="0.1" d="M172.06 257.777H168.973V273.905H172.06V257.777Z" fill="black"/>
<path d="M121.174 257.519H116.354V273.905H121.174V257.519Z" fill="#651FFF"/>
<path opacity="0.2" d="M121.174 257.519H116.354V273.905H121.174V257.519Z" fill="black"/>
<path d="M125.993 259.321H121.174V273.905H125.993V259.321Z" fill="#651FFF"/>
<path d="M132.016 259.321H128.614V273.905H132.016V259.321Z" fill="#651FFF"/>
<path opacity="0.9" d="M132.016 259.321H128.614V273.905H132.016V259.321Z" fill="white"/>
<path d="M128.614 257.777H125.527V273.905H128.614V257.777Z" fill="#651FFF"/>
<path opacity="0.1" d="M128.614 257.777H125.527V273.905H128.614V257.777Z" fill="black"/>
<path d="M136.836 257.519H132.017V273.905H136.836V257.519Z" fill="#651FFF"/>
<path d="M116.345 258.219L113.192 257.375L108.951 273.202L112.103 274.047L116.345 258.219Z" fill="#651FFF"/>
<path d="M141.655 259.321H136.836V273.905H141.655V259.321Z" fill="#651FFF"/>
<path opacity="0.2" d="M141.655 259.321H136.836V273.905H141.655V259.321Z" fill="#263238"/>
<path d="M144.276 257.777H141.189V273.905H144.276V257.777Z" fill="#651FFF"/>
<path opacity="0.1" d="M144.276 257.777H141.189V273.905H144.276V257.777Z" fill="black"/>
<path d="M113.98 286.291H109.161L108.499 276.967H114.642L113.98 286.291Z" fill="#263238"/>
<path d="M205.84 286.291H201.021L200.359 276.967H206.502L205.84 286.291Z" fill="#263238"/>
<path d="M211.151 230.196H103.849C103.236 230.196 102.648 230.439 102.214 230.873C101.781 231.307 101.537 231.895 101.537 232.508V276.343C101.537 276.957 101.781 277.545 102.214 277.978C102.648 278.412 103.236 278.655 103.849 278.655H211.151C211.764 278.655 212.352 278.412 212.786 277.978C213.219 277.545 213.463 276.957 213.463 276.343V232.508C213.463 231.895 213.219 231.307 212.786 230.873C212.352 230.439 211.764 230.196 211.151 230.196V230.196ZM208.832 234.826V252.775H106.142V234.826H208.832ZM106.168 274.05V256.082H208.858V274.05H106.168Z" fill="white" stroke="#263238" stroke-width="0.75" stroke-linecap="round" stroke-linejoin="round"/>
<path d="M195.287 138.121H121.042C118.655 138.121 116.72 140.056 116.72 142.443V158.382C116.72 160.769 118.655 162.704 121.042 162.704H195.287C197.674 162.704 199.609 160.769 199.609 158.382V142.443C199.609 140.056 197.674 138.121 195.287 138.121Z" fill="#263238" stroke="#263238" stroke-linecap="round" stroke-linejoin="round"/>
<path d="M193.964 136.798H119.718C117.331 136.798 115.396 138.733 115.396 141.12V157.059C115.396 159.446 117.331 161.381 119.718 161.381H193.964C196.351 161.381 198.286 159.446 198.286 157.059V141.12C198.286 138.733 196.351 136.798 193.964 136.798Z" fill="white" stroke="#263238" stroke-linecap="round" stroke-linejoin="round"/>
<path d="M193.964 136.798H119.718C117.331 136.798 115.396 138.733 115.396 141.12V157.059C115.396 159.446 117.331 161.381 119.718 161.381H193.964C196.351 161.381 198.286 159.446 198.286 157.059V141.12C198.286 138.733 196.351 136.798 193.964 136.798Z" stroke="#263238" stroke-linecap="round" stroke-linejoin="round"/>
<path d="M133.749 156.347H122.831V142.537H130.108L133.749 146.179V156.347Z" fill="#651FFF"/>
<path opacity="0.5" d="M133.749 156.347H122.831V142.537H130.108L133.749 146.179V156.347Z" fill="white"/>
<path d="M133.749 156.347H122.831V142.537H130.108L133.749 146.179V156.347Z" stroke="#263238" stroke-linecap="round" stroke-linejoin="round"/>
<path d="M130.107 146.179H133.749L130.107 142.537V146.179Z" fill="#651FFF" stroke="#263238" stroke-linecap="round" stroke-linejoin="round"/>
<path d="M125.256 149.864C125.084 149.848 124.925 149.768 124.809 149.641C124.693 149.513 124.629 149.347 124.629 149.174C124.629 149.002 124.693 148.836 124.809 148.708C124.925 148.581 125.084 148.501 125.256 148.485H131.323C131.494 148.501 131.654 148.581 131.77 148.708C131.886 148.836 131.95 149.002 131.95 149.174C131.95 149.347 131.886 149.513 131.77 149.641C131.654 149.768 131.494 149.848 131.323 149.864H125.256Z" fill="#858585" stroke="#263238" stroke-width="0.75" stroke-linecap="round" stroke-linejoin="round"/>
<path d="M125.256 152.769C125.084 152.752 124.925 152.672 124.809 152.545C124.693 152.417 124.629 152.251 124.629 152.079C124.629 151.906 124.693 151.74 124.809 151.613C124.925 151.485 125.084 151.405 125.256 151.389H130C130.171 151.405 130.331 151.485 130.447 151.613C130.563 151.74 130.627 151.906 130.627 152.079C130.627 152.251 130.563 152.417 130.447 152.545C130.331 152.672 130.171 152.752 130 152.769H125.256Z" fill="#858585" stroke="#263238" stroke-width="0.75" stroke-linecap="round" stroke-linejoin="round"/>
<path d="M161.349 150.658H141.032C140.669 150.682 140.33 150.843 140.082 151.108C139.834 151.373 139.696 151.722 139.696 152.085C139.696 152.448 139.834 152.797 140.082 153.062C140.33 153.327 140.669 153.488 141.032 153.512H161.349V150.658Z" fill="#651FFF"/>
<path d="M141.032 153.512C140.669 153.488 140.33 153.327 140.082 153.062C139.834 152.797 139.696 152.448 139.696 152.085C139.696 151.722 139.834 151.373 140.082 151.108C140.33 150.843 140.669 150.682 141.032 150.658H189.416C189.611 150.645 189.807 150.672 189.991 150.738C190.176 150.804 190.345 150.907 190.488 151.041C190.63 151.175 190.744 151.336 190.822 151.516C190.9 151.696 190.94 151.889 190.94 152.085C190.94 152.281 190.9 152.475 190.822 152.654C190.744 152.834 190.63 152.996 190.488 153.129C190.345 153.263 190.176 153.366 189.991 153.432C189.807 153.498 189.611 153.525 189.416 153.512H141.032Z" stroke="#263238" stroke-linecap="round" stroke-linejoin="round"/>
<path d="M161.809 146.79H160.278V146.065L161.734 142.619H162.609V146.065H162.987V146.79H162.609V147.716H161.809V146.79ZM161.809 146.065V144.081L161.022 146.072L161.809 146.065Z" fill="#263238"/>
<path d="M163.358 146.513V146.116H164.114V146.57C164.114 146.935 164.272 147.067 164.53 147.067C164.789 147.067 164.946 146.935 164.946 146.57V145.429C164.946 145.064 164.782 144.925 164.53 144.925C164.278 144.925 164.114 145.064 164.114 145.429V145.473H163.358L163.503 142.626H165.614V143.357H164.215L164.152 144.572C164.223 144.453 164.324 144.355 164.447 144.289C164.569 144.224 164.707 144.193 164.845 144.201C165.431 144.201 165.734 144.617 165.734 145.366V146.513C165.734 147.332 165.324 147.773 164.537 147.773C163.749 147.773 163.358 147.332 163.358 146.513Z" fill="#263238"/>
<path d="M166.244 144.642V143.382C166.235 143.274 166.247 143.166 166.282 143.064C166.316 142.962 166.371 142.869 166.444 142.789C166.517 142.71 166.605 142.646 166.703 142.603C166.802 142.559 166.908 142.537 167.016 142.537C167.124 142.537 167.23 142.559 167.329 142.603C167.427 142.646 167.516 142.71 167.588 142.789C167.661 142.869 167.716 142.962 167.75 143.064C167.785 143.166 167.798 143.274 167.788 143.382V144.642C167.798 144.749 167.785 144.857 167.75 144.959C167.716 145.061 167.661 145.155 167.588 145.234C167.516 145.314 167.427 145.377 167.329 145.421C167.23 145.464 167.124 145.486 167.016 145.486C166.908 145.486 166.802 145.464 166.703 145.421C166.605 145.377 166.517 145.314 166.444 145.234C166.371 145.155 166.316 145.061 166.282 144.959C166.247 144.857 166.235 144.749 166.244 144.642V144.642ZM167.278 144.679V143.331C167.278 143.111 167.177 143.016 167.019 143.016C166.862 143.016 166.755 143.111 166.755 143.331V144.679C166.755 144.906 166.849 145.001 167.019 145.001C167.189 145.001 167.278 144.9 167.278 144.679ZM168.865 142.626H169.375L167.404 147.722H166.893L168.865 142.626ZM168.481 146.979V145.719C168.471 145.612 168.484 145.504 168.518 145.402C168.553 145.3 168.608 145.206 168.681 145.127C168.753 145.047 168.841 144.984 168.94 144.94C169.038 144.897 169.145 144.874 169.253 144.874C169.36 144.874 169.467 144.897 169.565 144.94C169.664 144.984 169.752 145.047 169.825 145.127C169.897 145.206 169.953 145.3 169.987 145.402C170.021 145.504 170.034 145.612 170.024 145.719V146.979C170.034 147.086 170.021 147.194 169.987 147.296C169.953 147.398 169.897 147.492 169.825 147.571C169.752 147.651 169.664 147.714 169.565 147.758C169.467 147.801 169.36 147.824 169.253 147.824C169.145 147.824 169.038 147.801 168.94 147.758C168.841 147.714 168.753 147.651 168.681 147.571C168.608 147.492 168.553 147.398 168.518 147.296C168.484 147.194 168.471 147.086 168.481 146.979ZM169.514 147.017V145.669C169.514 145.442 169.413 145.347 169.249 145.347C169.086 145.347 168.991 145.442 168.991 145.669V147.017C168.991 147.244 169.086 147.338 169.249 147.338C169.413 147.338 169.514 147.244 169.514 147.017V147.017Z" fill="#263238"/>
<path d="M195.287 166.648H121.042C118.655 166.648 116.72 168.583 116.72 170.969V186.908C116.72 189.295 118.655 191.23 121.042 191.23H195.287C197.674 191.23 199.609 189.295 199.609 186.908V170.969C199.609 168.583 197.674 166.648 195.287 166.648Z" fill="#263238" stroke="#263238" stroke-linecap="round" stroke-linejoin="round"/>
<path d="M193.964 165.325H119.718C117.331 165.325 115.396 167.26 115.396 169.646V185.585C115.396 187.972 117.331 189.907 119.718 189.907H193.964C196.351 189.907 198.286 187.972 198.286 185.585V169.646C198.286 167.26 196.351 165.325 193.964 165.325Z" fill="white" stroke="#263238" stroke-linecap="round" stroke-linejoin="round"/>
<path d="M177.376 179.008H141.032C140.669 179.032 140.33 179.193 140.082 179.458C139.834 179.723 139.696 180.072 139.696 180.435C139.696 180.798 139.834 181.147 140.082 181.412C140.33 181.677 140.669 181.838 141.032 181.862H177.376V179.008Z" fill="#651FFF"/>
<path d="M141.032 181.862C140.669 181.838 140.33 181.677 140.082 181.412C139.834 181.147 139.696 180.798 139.696 180.435C139.696 180.072 139.834 179.723 140.082 179.458C140.33 179.193 140.669 179.032 141.032 179.008H189.416C189.611 178.995 189.807 179.022 189.991 179.088C190.176 179.154 190.345 179.257 190.488 179.391C190.63 179.525 190.744 179.686 190.822 179.866C190.9 180.046 190.94 180.239 190.94 180.435C190.94 180.631 190.9 180.825 190.822 181.004C190.744 181.184 190.63 181.346 190.488 181.479C190.345 181.613 190.176 181.716 189.991 181.782C189.807 181.848 189.611 181.875 189.416 181.862H141.032Z" stroke="#263238" stroke-linecap="round" stroke-linejoin="round"/>
<path d="M160.373 174.888V174.434C160.348 174.229 160.385 174.021 160.478 173.836C160.571 173.651 160.716 173.497 160.896 173.395V173.395C160.724 173.295 160.586 173.146 160.499 172.968C160.412 172.79 160.379 172.59 160.404 172.393V172.185C160.404 171.861 160.533 171.55 160.762 171.321C160.992 171.092 161.303 170.963 161.627 170.963C161.951 170.963 162.262 171.092 162.491 171.321C162.72 171.55 162.849 171.861 162.849 172.185V172.393C162.872 172.59 162.837 172.79 162.748 172.968C162.66 173.145 162.522 173.294 162.351 173.395C162.532 173.497 162.679 173.65 162.773 173.835C162.867 174.019 162.905 174.228 162.88 174.434V174.888C162.88 175.222 162.748 175.543 162.511 175.779C162.275 176.015 161.955 176.148 161.62 176.148C161.286 176.148 160.966 176.015 160.729 175.779C160.493 175.543 160.36 175.222 160.36 174.888H160.373ZM162.08 174.844V174.352C162.08 173.968 161.923 173.779 161.627 173.779C161.331 173.779 161.173 173.968 161.173 174.352V174.844C161.173 175.228 161.331 175.417 161.627 175.417C161.923 175.417 162.08 175.228 162.08 174.844V174.844ZM162.08 172.544V172.141C162.08 171.807 161.935 171.631 161.658 171.631C161.381 171.631 161.236 171.807 161.236 172.141V172.544C161.236 172.878 161.381 173.055 161.658 173.055C161.935 173.055 162.049 172.878 162.049 172.544H162.08Z" fill="#263238"/>
<path d="M163.359 174.863V174.466H164.115V174.919C164.115 175.285 164.272 175.417 164.53 175.417C164.789 175.417 164.946 175.285 164.946 174.919V173.779C164.946 173.414 164.782 173.275 164.53 173.275C164.278 173.275 164.115 173.414 164.115 173.779V173.823H163.359L163.503 170.976H165.614V171.706H164.215L164.152 172.922C164.223 172.803 164.324 172.705 164.447 172.639C164.569 172.574 164.707 172.543 164.845 172.551C165.431 172.551 165.734 172.966 165.734 173.716V174.863C165.746 175.027 165.724 175.192 165.669 175.347C165.614 175.502 165.528 175.644 165.416 175.765C165.304 175.885 165.169 175.981 165.018 176.047C164.867 176.113 164.704 176.147 164.54 176.147C164.375 176.147 164.213 176.113 164.062 176.047C163.911 175.981 163.775 175.885 163.663 175.765C163.551 175.644 163.465 175.502 163.411 175.347C163.356 175.192 163.334 175.027 163.346 174.863H163.359Z" fill="#263238"/>
<path d="M166.244 172.992V171.732C166.235 171.624 166.247 171.516 166.282 171.414C166.316 171.312 166.371 171.219 166.444 171.139C166.517 171.06 166.605 170.996 166.703 170.953C166.802 170.909 166.908 170.887 167.016 170.887C167.124 170.887 167.23 170.909 167.329 170.953C167.427 170.996 167.516 171.06 167.588 171.139C167.661 171.219 167.716 171.312 167.75 171.414C167.785 171.516 167.798 171.624 167.788 171.732V172.992C167.798 173.099 167.785 173.207 167.75 173.309C167.716 173.411 167.661 173.505 167.588 173.584C167.516 173.664 167.427 173.727 167.329 173.771C167.23 173.814 167.124 173.836 167.016 173.836C166.908 173.836 166.802 173.814 166.703 173.771C166.605 173.727 166.517 173.664 166.444 173.584C166.371 173.505 166.316 173.411 166.282 173.309C166.247 173.207 166.235 173.099 166.244 172.992V172.992ZM167.278 173.029V171.681C167.278 171.461 167.177 171.36 167.019 171.36C166.862 171.36 166.755 171.461 166.755 171.681V173.029C166.755 173.256 166.849 173.351 167.019 173.351C167.189 173.351 167.278 173.25 167.278 173.029ZM168.865 170.976H169.375L167.404 176.072H166.893L168.865 170.976ZM168.481 175.329V174.069C168.471 173.962 168.484 173.854 168.518 173.752C168.553 173.65 168.608 173.556 168.681 173.476C168.753 173.397 168.841 173.334 168.94 173.29C169.038 173.247 169.145 173.224 169.253 173.224C169.36 173.224 169.467 173.247 169.565 173.29C169.664 173.334 169.752 173.397 169.825 173.476C169.897 173.556 169.953 173.65 169.987 173.752C170.021 173.854 170.034 173.962 170.024 174.069V175.329C170.034 175.436 170.021 175.544 169.987 175.646C169.953 175.748 169.897 175.842 169.825 175.921C169.752 176.001 169.664 176.064 169.565 176.108C169.467 176.151 169.36 176.174 169.253 176.174C169.145 176.174 169.038 176.151 168.94 176.108C168.841 176.064 168.753 176.001 168.681 175.921C168.608 175.842 168.553 175.748 168.518 175.646C168.484 175.544 168.471 175.436 168.481 175.329ZM169.514 175.367V174.019C169.514 173.792 169.413 173.697 169.249 173.697C169.086 173.697 168.991 173.792 168.991 174.019V175.367C168.991 175.594 169.086 175.688 169.249 175.688C169.413 175.688 169.514 175.594 169.514 175.367V175.367Z" fill="#263238"/>
<path d="M133.749 184.697H122.831V170.887H130.108L133.749 174.529V184.697Z" fill="#651FFF"/>
<path opacity="0.5" d="M133.749 184.697H122.831V170.887H130.108L133.749 174.529V184.697Z" fill="white" stroke="#263238" stroke-linecap="round" stroke-linejoin="round"/>
<path d="M133.749 184.697H122.831V170.887H130.108L133.749 174.529V184.697Z" stroke="#263238" stroke-linecap="round" stroke-linejoin="round"/>
<path d="M125.256 178.214C125.084 178.198 124.925 178.118 124.809 177.991C124.693 177.863 124.629 177.697 124.629 177.525C124.629 177.352 124.693 177.186 124.809 177.058C124.925 176.931 125.084 176.851 125.256 176.835H131.323C131.494 176.851 131.654 176.931 131.77 177.058C131.886 177.186 131.95 177.352 131.95 177.525C131.95 177.697 131.886 177.863 131.77 177.991C131.654 178.118 131.494 178.198 131.323 178.214H125.256Z" fill="#858585" stroke="#263238" stroke-width="0.75" stroke-linecap="round" stroke-linejoin="round"/>
<path d="M125.256 181.119C125.084 181.102 124.925 181.023 124.809 180.895C124.693 180.767 124.629 180.601 124.629 180.429C124.629 180.256 124.693 180.09 124.809 179.963C124.925 179.835 125.084 179.755 125.256 179.739H130C130.171 179.755 130.331 179.835 130.447 179.963C130.563 180.09 130.627 180.256 130.627 180.429C130.627 180.601 130.563 180.767 130.447 180.895C130.331 181.023 130.171 181.102 130 181.119H125.256Z" fill="#858585" stroke="#263238" stroke-width="0.75" stroke-linecap="round" stroke-linejoin="round"/>
<path d="M130.107 174.529H133.749L130.107 170.887V174.529Z" fill="#651FFF" stroke="#263238" stroke-linecap="round" stroke-linejoin="round"/>
<path d="M205.437 100.031H110.886C108.499 100.031 106.564 101.966 106.564 104.353V126.321C106.564 128.708 108.499 130.643 110.886 130.643H205.437C207.824 130.643 209.758 128.708 209.758 126.321V104.353C209.758 101.966 207.824 100.031 205.437 100.031Z" fill="#263238" stroke="#263238" stroke-linecap="round" stroke-linejoin="round"/>
<path d="M204.113 98.7084H109.563C107.176 98.7084 105.241 100.643 105.241 103.03V124.998C105.241 127.385 107.176 129.32 109.563 129.32H204.113C206.5 129.32 208.435 127.385 208.435 124.998V103.03C208.435 100.643 206.5 98.7084 204.113 98.7084Z" fill="white" stroke="#263238" stroke-linecap="round" stroke-linejoin="round"/>
<path d="M141.259 126.8H121.042V101.228H134.518L141.259 107.963V126.8Z" fill="#651FFF"/>
<path opacity="0.7" d="M141.259 126.8H121.042V101.228H134.518L141.259 107.963V126.8Z" fill="white"/>
<path d="M141.259 126.8H121.042V101.228H134.518L141.259 107.963V126.8Z" stroke="#263238" stroke-linecap="round" stroke-linejoin="round"/>
<path d="M134.518 107.963H141.259L134.518 101.228V107.963Z" fill="#651FFF" stroke="#263238" stroke-linecap="round" stroke-linejoin="round"/>
<path d="M127.008 111.113H123.039V115.082H127.008V111.113Z" stroke="white" stroke-width="0.75" stroke-linecap="round" stroke-linejoin="round"/>
<path d="M131.09 111.113H127.121V115.082H131.09V111.113Z" stroke="white" stroke-width="0.75" stroke-linecap="round" stroke-linejoin="round"/>
<path d="M135.179 111.113H131.21V115.082H135.179V111.113Z" stroke="white" stroke-width="0.75" stroke-linecap="round" stroke-linejoin="round"/>
<path d="M139.261 111.113H135.292V115.082H139.261V111.113Z" stroke="white" stroke-width="0.75" stroke-linecap="round" stroke-linejoin="round"/>
<path d="M127.008 115.082H123.039V119.051H127.008V115.082Z" stroke="white" stroke-width="0.75" stroke-linecap="round" stroke-linejoin="round"/>
<path d="M131.09 115.082H127.121V119.051H131.09V115.082Z" stroke="white" stroke-width="0.75" stroke-linecap="round" stroke-linejoin="round"/>
<path d="M135.179 115.082H131.21V119.051H135.179V115.082Z" stroke="white" stroke-width="0.75" stroke-linecap="round" stroke-linejoin="round"/>
<path d="M139.261 115.082H135.292V119.051H139.261V115.082Z" stroke="white" stroke-width="0.75" stroke-linecap="round" stroke-linejoin="round"/>
<path d="M127.008 119.051H123.039V123.02H127.008V119.051Z" stroke="white" stroke-width="0.75" stroke-linecap="round" stroke-linejoin="round"/>
<path d="M131.09 119.051H127.121V123.02H131.09V119.051Z" stroke="white" stroke-width="0.75" stroke-linecap="round" stroke-linejoin="round"/>
<path d="M135.179 119.051H131.21V123.02H135.179V119.051Z" stroke="white" stroke-width="0.75" stroke-linecap="round" stroke-linejoin="round"/>
<path d="M139.261 119.051H135.292V123.02H139.261V119.051Z" stroke="white" stroke-width="0.75" stroke-linecap="round" stroke-linejoin="round"/>
<path d="M123.114 122.636L127.121 118.957L129.106 119.051L131.273 115.139L133.194 117.067L135.349 114.805L137.277 111.113" stroke="#651FFF" stroke-width="2" stroke-linecap="round" stroke-linejoin="round"/>
<path d="M135.002 112.266L137.276 111.113L137.736 113.595" stroke="#651FFF" stroke-width="2" stroke-linecap="round" stroke-linejoin="round"/>
<path d="M149.209 113.198H148.05V112.43C148.97 112.43 149.31 112.228 149.549 111.554H150.28V118.484H149.19L149.209 113.198Z" fill="#263238"/>
<path d="M151.571 116.852V113.198C151.571 112.759 151.746 112.338 152.057 112.027C152.367 111.716 152.789 111.542 153.228 111.542C153.668 111.542 154.089 111.716 154.4 112.027C154.711 112.338 154.885 112.759 154.885 113.198V116.852C154.885 117.292 154.711 117.713 154.4 118.024C154.089 118.335 153.668 118.509 153.228 118.509C152.789 118.509 152.367 118.335 152.057 118.024C151.746 117.713 151.571 117.292 151.571 116.852V116.852ZM153.795 116.922V113.142C153.795 112.65 153.575 112.461 153.228 112.461C152.882 112.461 152.661 112.65 152.661 113.142V116.922C152.661 117.419 152.882 117.608 153.228 117.608C153.575 117.608 153.795 117.419 153.795 116.922Z" fill="#263238"/>
<path d="M155.54 116.852V113.198C155.54 112.759 155.715 112.338 156.025 112.027C156.336 111.716 156.758 111.542 157.197 111.542C157.636 111.542 158.058 111.716 158.369 112.027C158.679 112.338 158.854 112.759 158.854 113.198V116.852C158.854 117.292 158.679 117.713 158.369 118.024C158.058 118.335 157.636 118.509 157.197 118.509C156.758 118.509 156.336 118.335 156.025 118.024C155.715 117.713 155.54 117.292 155.54 116.852V116.852ZM157.764 116.922V113.142C157.764 112.65 157.543 112.461 157.197 112.461C156.85 112.461 156.63 112.65 156.63 113.142V116.922C156.63 117.419 156.85 117.608 157.197 117.608C157.543 117.608 157.764 117.419 157.764 116.922Z" fill="#263238"/>
<path d="M159.528 114.301V112.568C159.528 112.289 159.639 112.022 159.836 111.824C160.034 111.627 160.301 111.516 160.58 111.516C160.859 111.516 161.127 111.627 161.324 111.824C161.522 112.022 161.633 112.289 161.633 112.568V114.301C161.633 114.58 161.522 114.847 161.324 115.045C161.127 115.242 160.859 115.353 160.58 115.353C160.301 115.353 160.034 115.242 159.836 115.045C159.639 114.847 159.528 114.58 159.528 114.301V114.301ZM160.94 114.351V112.518C160.94 112.209 160.801 112.077 160.58 112.077C160.36 112.077 160.221 112.209 160.221 112.518V114.351C160.221 114.66 160.354 114.786 160.58 114.786C160.807 114.786 160.94 114.66 160.94 114.351V114.351ZM163.1 111.554H163.8L161.11 118.484H160.417L163.1 111.554ZM162.571 117.489V115.75C162.571 115.612 162.598 115.475 162.651 115.347C162.704 115.22 162.782 115.104 162.879 115.006C162.977 114.908 163.093 114.831 163.221 114.778C163.348 114.725 163.485 114.698 163.623 114.698C163.761 114.698 163.898 114.725 164.026 114.778C164.154 114.831 164.27 114.908 164.367 115.006C164.465 115.104 164.542 115.22 164.595 115.347C164.648 115.475 164.675 115.612 164.675 115.75V117.489C164.675 117.627 164.648 117.764 164.595 117.891C164.542 118.019 164.465 118.135 164.367 118.233C164.27 118.33 164.154 118.408 164.026 118.461C163.898 118.514 163.761 118.541 163.623 118.541C163.485 118.541 163.348 118.514 163.221 118.461C163.093 118.408 162.977 118.33 162.879 118.233C162.782 118.135 162.704 118.019 162.651 117.891C162.598 117.764 162.571 117.627 162.571 117.489ZM163.982 117.539V115.699C163.982 115.391 163.844 115.265 163.623 115.265C163.403 115.265 163.271 115.391 163.271 115.699V117.539C163.271 117.841 163.397 117.974 163.623 117.974C163.85 117.974 163.982 117.841 163.982 117.539V117.539Z" fill="#263238"/>
<path d="M166.439 116.329V113.589C166.439 113.277 166.564 112.977 166.785 112.756C167.005 112.535 167.305 112.411 167.618 112.411C167.93 112.411 168.23 112.535 168.451 112.756C168.672 112.977 168.796 113.277 168.796 113.589V114.131H168.04V113.539C168.04 113.205 167.876 113.066 167.636 113.066C167.397 113.066 167.24 113.205 167.24 113.539V116.386C167.24 116.72 167.397 116.852 167.636 116.852C167.876 116.852 168.04 116.72 168.04 116.386V115.605H168.796V116.329C168.796 116.642 168.672 116.942 168.451 117.163C168.23 117.383 167.93 117.508 167.618 117.508C167.305 117.508 167.005 117.383 166.785 117.163C166.564 116.942 166.439 116.642 166.439 116.329Z" fill="#263238"/>
<path d="M169.23 116.298V113.62C169.23 113.298 169.359 112.989 169.587 112.761C169.815 112.533 170.124 112.405 170.446 112.405C170.769 112.405 171.078 112.533 171.306 112.761C171.534 112.989 171.662 113.298 171.662 113.62V116.298C171.662 116.62 171.534 116.93 171.306 117.158C171.078 117.386 170.769 117.514 170.446 117.514C170.124 117.514 169.815 117.386 169.587 117.158C169.359 116.93 169.23 116.62 169.23 116.298V116.298ZM170.862 116.348V113.57C170.862 113.205 170.705 113.066 170.446 113.066C170.188 113.066 170.031 113.205 170.031 113.57V116.348C170.031 116.714 170.194 116.852 170.446 116.852C170.698 116.852 170.862 116.714 170.862 116.348Z" fill="#263238"/>
<path d="M172.197 112.411H173.344L173.854 116.059L174.364 112.411H175.505V117.508H174.749V113.652L174.163 117.508H173.495L172.915 113.652V117.508H172.216L172.197 112.411Z" fill="#263238"/>
<path d="M176.116 112.411H177.294C178.094 112.411 178.485 112.858 178.485 113.671V114.175C178.485 114.988 178.094 115.435 177.294 115.435H176.916V117.508H176.116V112.411ZM177.294 114.704C177.546 114.704 177.685 114.591 177.685 114.225V113.595C177.685 113.23 177.546 113.116 177.294 113.116H176.916V114.679L177.294 114.704Z" fill="#263238"/>
<path d="M178.92 112.411H179.72V116.777H181.037V117.508H178.92V112.411Z" fill="#263238"/>
<path d="M181.439 112.411H183.619V113.142H182.24V114.484H183.329V115.214H182.233V116.777H183.613V117.508H181.439V112.411Z" fill="#263238"/>
<path d="M184.691 113.142H183.859V112.411H186.329V113.142H185.491V117.508H184.691V113.142Z" fill="#263238"/>
<path d="M186.719 112.411H188.899V113.142H187.519V114.484H188.615V115.214H187.519V116.777H188.899V117.508H186.719V112.411Z" fill="#263238"/>
<path d="M189.358 112.411H190.581C191.381 112.411 191.771 112.858 191.771 113.671V116.248C191.771 117.06 191.381 117.508 190.581 117.508H189.358V112.411ZM190.562 116.777C190.82 116.777 190.971 116.644 190.971 116.285V113.633C190.971 113.274 190.82 113.142 190.562 113.142H190.158V116.777H190.562Z" fill="#263238"/>
<path d="M195.287 195.18H121.042C118.655 195.18 116.72 197.115 116.72 199.502V215.441C116.72 217.828 118.655 219.763 121.042 219.763H195.287C197.674 219.763 199.609 217.828 199.609 215.441V199.502C199.609 197.115 197.674 195.18 195.287 195.18Z" fill="#263238" stroke="#263238" stroke-linecap="round" stroke-linejoin="round"/>
<path d="M193.964 193.857H119.718C117.331 193.857 115.396 195.792 115.396 198.179V214.118C115.396 216.505 117.331 218.44 119.718 218.44H193.964C196.351 218.44 198.286 216.505 198.286 214.118V198.179C198.286 195.792 196.351 193.857 193.964 193.857Z" fill="white" stroke="#263238" stroke-linecap="round" stroke-linejoin="round"/>
<path d="M174.812 207.365H141.031C140.654 207.365 140.291 207.515 140.024 207.782C139.757 208.049 139.607 208.411 139.607 208.788C139.607 209.166 139.757 209.528 140.024 209.795C140.291 210.062 140.654 210.212 141.031 210.212H174.812V207.365Z" fill="#651FFF"/>
<path d="M141.031 210.212C140.654 210.212 140.291 210.062 140.024 209.795C139.757 209.528 139.607 209.166 139.607 208.788C139.607 208.411 139.757 208.049 140.024 207.782C140.291 207.515 140.654 207.365 141.031 207.365H189.415C189.602 207.365 189.787 207.401 189.96 207.473C190.133 207.544 190.29 207.649 190.422 207.782C190.554 207.914 190.659 208.071 190.731 208.243C190.802 208.416 190.839 208.601 190.839 208.788C190.839 208.975 190.802 209.16 190.731 209.333C190.659 209.506 190.554 209.663 190.422 209.795C190.29 209.927 190.133 210.032 189.96 210.104C189.787 210.175 189.602 210.212 189.415 210.212H141.031Z" stroke="#263238" stroke-linecap="round" stroke-linejoin="round"/>
<path d="M133.749 213.053H122.831V199.244H130.108L133.749 202.879V213.053Z" fill="#651FFF"/>
<path opacity="0.5" d="M133.749 213.053H122.831V199.244H130.108L133.749 202.879V213.053Z" fill="white"/>
<path d="M133.749 213.053H122.831V199.244H130.108L133.749 202.879V213.053Z" stroke="#263238" stroke-linecap="round" stroke-linejoin="round"/>
<path d="M125.256 206.571C125.084 206.554 124.925 206.474 124.809 206.347C124.693 206.219 124.629 206.053 124.629 205.881C124.629 205.708 124.693 205.542 124.809 205.415C124.925 205.287 125.084 205.207 125.256 205.191H131.323C131.494 205.207 131.654 205.287 131.77 205.415C131.886 205.542 131.95 205.708 131.95 205.881C131.95 206.053 131.886 206.219 131.77 206.347C131.654 206.474 131.494 206.554 131.323 206.571H125.256Z" fill="#858585" stroke="#263238" stroke-width="0.75" stroke-linecap="round" stroke-linejoin="round"/>
<path d="M125.256 209.469C125.074 209.469 124.899 209.396 124.77 209.267C124.642 209.139 124.569 208.964 124.569 208.782C124.569 208.6 124.642 208.425 124.77 208.296C124.899 208.168 125.074 208.095 125.256 208.095H130C130.182 208.095 130.357 208.168 130.486 208.296C130.614 208.425 130.687 208.6 130.687 208.782C130.687 208.964 130.614 209.139 130.486 209.267C130.357 209.396 130.182 209.469 130 209.469H125.256Z" fill="#858585" stroke="#263238" stroke-width="0.75" stroke-linecap="round" stroke-linejoin="round"/>
<path d="M130.107 202.879H133.749L130.107 199.244V202.879Z" fill="#651FFF" stroke="#263238" stroke-linecap="round" stroke-linejoin="round"/>
<path d="M162.036 200.056H160.417V199.332H162.817V200.031L161.557 204.441H160.738L162.036 200.056Z" fill="#263238"/>
<path d="M163.321 203.219V200.542C163.321 200.219 163.449 199.91 163.677 199.682C163.905 199.454 164.215 199.326 164.537 199.326C164.86 199.326 165.169 199.454 165.397 199.682C165.625 199.91 165.753 200.219 165.753 200.542V203.219C165.753 203.542 165.625 203.851 165.397 204.079C165.169 204.307 164.86 204.435 164.537 204.435C164.215 204.435 163.905 204.307 163.677 204.079C163.449 203.851 163.321 203.542 163.321 203.219ZM164.953 203.269V200.491C164.953 200.126 164.789 199.987 164.537 199.987C164.285 199.987 164.121 200.126 164.121 200.491V203.269C164.121 203.635 164.285 203.767 164.537 203.767C164.789 203.767 164.953 203.635 164.953 203.269Z" fill="#263238"/>
<path d="M166.244 201.348V200.088C166.235 199.981 166.247 199.873 166.282 199.771C166.316 199.669 166.371 199.575 166.444 199.496C166.517 199.416 166.605 199.353 166.703 199.309C166.802 199.266 166.908 199.243 167.016 199.243C167.124 199.243 167.23 199.266 167.329 199.309C167.427 199.353 167.516 199.416 167.588 199.496C167.661 199.575 167.716 199.669 167.75 199.771C167.785 199.873 167.798 199.981 167.788 200.088V201.348C167.798 201.455 167.785 201.563 167.75 201.665C167.716 201.767 167.661 201.861 167.588 201.94C167.516 202.02 167.427 202.083 167.329 202.127C167.23 202.17 167.124 202.193 167.016 202.193C166.908 202.193 166.802 202.17 166.703 202.127C166.605 202.083 166.517 202.02 166.444 201.94C166.371 201.861 166.316 201.767 166.282 201.665C166.247 201.563 166.235 201.455 166.244 201.348V201.348ZM167.278 201.386V200.038C167.278 199.811 167.177 199.716 167.019 199.716C166.862 199.716 166.755 199.811 166.755 200.038V201.386C166.755 201.606 166.849 201.701 167.019 201.701C167.189 201.701 167.278 201.6 167.278 201.386ZM168.84 199.332H169.35L167.378 204.422H166.868L168.84 199.332ZM168.456 203.685V202.425C168.446 202.318 168.459 202.21 168.493 202.108C168.527 202.006 168.583 201.912 168.655 201.833C168.728 201.753 168.816 201.69 168.915 201.646C169.013 201.603 169.12 201.581 169.227 201.581C169.335 201.581 169.442 201.603 169.54 201.646C169.639 201.69 169.727 201.753 169.799 201.833C169.872 201.912 169.927 202.006 169.962 202.108C169.996 202.21 170.009 202.318 169.999 202.425V203.685C170.009 203.792 169.996 203.901 169.962 204.003C169.927 204.105 169.872 204.198 169.799 204.278C169.727 204.357 169.639 204.421 169.54 204.464C169.442 204.508 169.335 204.53 169.227 204.53C169.12 204.53 169.013 204.508 168.915 204.464C168.816 204.421 168.728 204.357 168.655 204.278C168.583 204.198 168.527 204.105 168.493 204.003C168.459 203.901 168.446 203.792 168.456 203.685V203.685ZM169.489 203.717V202.375C169.489 202.148 169.388 202.054 169.224 202.054C169.06 202.054 168.966 202.148 168.966 202.375V203.717C168.966 203.944 169.06 204.038 169.224 204.038C169.388 204.038 169.514 203.944 169.514 203.717H169.489Z" fill="#263238"/>
<path d="M74.6172 69.426L91.2429 56.574L107.869 69.426H74.6172Z" fill="#263238" stroke="#263238" stroke-linecap="round" stroke-linejoin="round"/>
<path d="M95.5895 55.5659H86.8955V62.9999H95.5895V55.5659Z" fill="#263238" stroke="#263238" stroke-linecap="round" stroke-linejoin="round"/>
<path d="M91.2432 37.0944V63" stroke="#263238" stroke-width="0.75" stroke-linecap="round" stroke-linejoin="round"/>
<path d="M207.125 69.426L223.757 56.574L240.383 69.426H207.125Z" fill="#263238" stroke="#263238" stroke-linecap="round" stroke-linejoin="round"/>
<path d="M228.104 55.5659H219.41V62.9999H228.104V55.5659Z" fill="#263238" stroke="#263238" stroke-linecap="round" stroke-linejoin="round"/>
<path d="M223.757 35.8344V62.9999" stroke="#263238" stroke-width="0.75" stroke-linecap="round" stroke-linejoin="round"/>
<path d="M230.246 270.012L229.894 280.407L235.274 280.665L237.233 270.012H230.246Z" fill="white" stroke="#263238" stroke-linecap="round" stroke-linejoin="round"/>
<path d="M219.719 283.595C221.533 282.965 224.671 281.894 225.849 281.157C226.794 280.564 228.11 278.637 229.087 278.095C229.292 278.006 229.513 277.96 229.736 277.96C229.959 277.96 230.18 278.006 230.385 278.095C230.543 278.271 230.646 278.49 230.681 278.725C230.708 278.826 230.764 278.918 230.843 278.988C230.921 279.058 231.019 279.103 231.123 279.118C231.227 279.132 231.334 279.116 231.429 279.071C231.524 279.026 231.603 278.954 231.657 278.863C231.808 278.567 232.023 278.309 232.287 278.107C233.119 277.641 235.368 277.509 236.105 278.107C237.327 279.109 237.768 282.561 237.995 284.118C238.052 284.458 237.995 286.348 237.995 286.348H218.364V285.485C218.362 285.067 218.491 284.659 218.735 284.32C218.978 283.98 219.322 283.726 219.719 283.595V283.595Z" fill="white" stroke="#263238" stroke-linecap="round" stroke-linejoin="round"/>
<path d="M238.008 286.335H218.364V285.472C218.364 285.257 218.4 285.044 218.471 284.842H238.033C238.033 285.504 238.008 286.335 238.008 286.335Z" fill="#858585" stroke="#263238" stroke-linecap="round" stroke-linejoin="round"/>
<path d="M233.642 189.422L229.516 273.968L237.076 275.228C237.076 275.228 241.838 250.759 242.418 242.745C242.557 240.855 242.418 235.154 242.418 235.154L247.767 208.826C247.767 208.826 251.288 205.575 251.698 190.096L233.642 189.422Z" fill="#263238" stroke="#263238" stroke-linecap="round" stroke-linejoin="round"/>
<path opacity="0.7" d="M244.83 222.144C245.12 220.922 245.46 219.719 245.87 218.522C245.933 218.352 246.008 218.194 246.084 218.037C246.272 216.248 246.56 214.47 246.947 212.713C247.08 212.057 247.434 211.466 247.949 211.038C248.096 210.705 248.315 210.41 248.591 210.174C248.867 209.937 249.192 209.765 249.543 209.67C249.311 208.044 248.957 206.437 248.484 204.863C248.005 203.213 247.224 201.632 246.991 199.924C246.928 199.483 246.676 199.023 246.758 198.973C246.216 198.762 245.686 198.522 245.17 198.255L245.076 198.179C244.593 206.158 244.511 214.157 244.83 222.144V222.144Z" fill="black"/>
<path d="M233.282 237.781C234.62 237.471 235.849 236.802 236.835 235.847" stroke="#7F7F7F" stroke-width="0.75" stroke-linecap="round" stroke-linejoin="round"/>
<path d="M228.52 275.575L237.661 276.324L238.341 273.363L228.52 272.595V275.575Z" fill="#651FFF" stroke="#263238" stroke-linecap="round" stroke-linejoin="round"/>
<path d="M254.917 268.733L256.864 280.886L261.841 280.495L261.677 268.052L254.917 268.733Z" fill="white" stroke="#263238" stroke-linecap="round" stroke-linejoin="round"/>
<path d="M246.582 283.595C248.402 282.965 251.54 281.894 252.711 281.156C253.656 280.564 254.979 278.636 255.95 278.095C256.156 278.006 256.377 277.96 256.602 277.96C256.826 277.96 257.048 278.006 257.254 278.095C257.368 278.212 257.448 278.358 257.487 278.517C257.521 278.637 257.59 278.745 257.685 278.826C257.78 278.907 257.898 278.958 258.022 278.972C258.146 278.987 258.272 278.963 258.383 278.906C258.495 278.848 258.586 278.759 258.646 278.649C258.774 278.432 258.946 278.243 259.15 278.095C259.982 277.628 262.231 277.496 262.968 278.095C264.19 279.096 264.631 282.549 264.858 284.105C264.908 284.445 264.858 286.335 264.858 286.335H245.233V285.472C245.233 285.057 245.363 284.653 245.605 284.316C245.847 283.979 246.188 283.727 246.582 283.595V283.595Z" fill="white" stroke="#263238" stroke-linecap="round" stroke-linejoin="round"/>
<path d="M264.877 286.335H245.234V285.472C245.231 285.258 245.265 285.045 245.334 284.842H264.896C264.896 285.504 264.877 286.335 264.877 286.335Z" fill="#858585" stroke="#263238" stroke-linecap="round" stroke-linejoin="round"/>
<path d="M244.163 191.974C244.163 191.974 246.053 202.917 247.792 212.096C248.976 218.32 249.052 236.71 249.052 236.71L255.087 274.68L262.528 273.678C262.528 273.678 262.616 250.305 261.778 242.808C261.589 241.139 261.28 236.181 261.28 236.181C261.28 236.181 261.564 216.348 263.095 209.721C264.191 204.996 266.371 200.031 263.725 190.348L244.163 191.974Z" fill="#263238" stroke="#263238" stroke-linecap="round" stroke-linejoin="round"/>
<path d="M250.684 237.781C251.441 238.828 252.566 239.551 253.834 239.803" stroke="#7F7F7F" stroke-width="0.75" stroke-linecap="round" stroke-linejoin="round"/>
<path d="M253.84 272.973L254.268 275.757L263.491 274.768L263.428 271.77L253.84 272.973Z" fill="#651FFF" stroke="#263238" stroke-linecap="round" stroke-linejoin="round"/>
<path d="M209.053 141.353L207.018 137.932C207.018 137.932 206.527 132.344 205.393 131.254C204.259 130.164 201.739 126.958 201.379 127.588C200.812 128.596 202.91 130.391 202.91 130.391L203.295 132.47C203.295 132.47 199.899 130.026 198.941 130.026C198.941 130.026 196.232 126.819 195.275 126.813C194.317 126.806 195.665 129.03 195.665 129.03C195.665 129.03 194.752 128.331 194.575 128.766C194.399 129.2 195.754 130.687 195.754 130.687C195.754 130.687 195.231 131.254 196.018 132.47C195.909 132.863 195.91 133.278 196.021 133.67C196.133 134.063 196.349 134.417 196.648 134.694C197.694 135.526 203.314 138.707 203.314 138.707L205.204 143.155L209.053 141.353Z" fill="#858585" stroke="#263238" stroke-linecap="round" stroke-linejoin="round"/>
<path d="M196.497 130.775C196.497 130.775 197.24 131.078 196.932 132.168C197.229 132.589 197.395 133.089 197.411 133.604C197.486 134.562 202.337 134.089 203.648 136.124" stroke="#263238" stroke-width="0.75" stroke-linecap="round" stroke-linejoin="round"/>
<path d="M196.497 129.597L198.475 131.689" stroke="#263238" stroke-width="0.75" stroke-linecap="round" stroke-linejoin="round"/>
<path d="M230.057 140.49L217.073 150.608L208.177 138.487L203.647 140.755C203.647 140.755 210.766 160.423 216.153 160.423C221.88 160.423 232.766 151.225 232.766 151.225C232.766 151.225 233.453 149.468 230.057 140.49Z" fill="#651FFF" stroke="#263238" stroke-linecap="round" stroke-linejoin="round"/>
<path d="M217.564 151.572C217.868 152.217 218.094 152.896 218.239 153.594" stroke="#263238" stroke-width="0.75" stroke-linecap="round" stroke-linejoin="round"/>
<path d="M230.057 140.49L232.822 177.099V192.308C232.822 192.308 248.755 194.198 264.474 191.904L263.932 176.249L265.526 141.353C265.526 141.353 258.23 136.08 247.029 136.08C235.827 136.08 230.057 140.49 230.057 140.49Z" fill="#651FFF" stroke="#263238" stroke-linecap="round" stroke-linejoin="round"/>
<path opacity="0.2" d="M264.474 191.904L263.97 177.874C263.699 184.634 256.24 182.095 254.551 181.78C252.743 181.44 250.664 187.4 250.664 187.4C250.664 187.4 243.734 188.591 238.31 188.168C232.886 187.746 232.804 182.795 232.804 182.795V192.308C232.804 192.308 248.755 194.223 264.474 191.904Z" fill="black"/>
<path d="M240.288 176.747C246.97 176.028 253.381 173.719 258.986 170.012Z" fill="#651FFF"/>
<path d="M240.288 176.747C246.97 176.028 253.381 173.719 258.986 170.012" stroke="#263238" stroke-width="0.75" stroke-linecap="round" stroke-linejoin="round"/>
<path d="M237.51 176.936C237.51 176.936 238.045 176.936 238.99 176.866Z" fill="#651FFF"/>
<path d="M237.51 176.936C237.51 176.936 238.045 176.936 238.99 176.866" stroke="#263238" stroke-width="0.75" stroke-linecap="round" stroke-linejoin="round"/>
<path d="M242.903 142.254L240.143 141.252L237.51 143.798L239.438 135.923L241.762 134.096L242.947 134.845L248.239 134.644L252.353 134.978L254.312 134.373L256.403 136.464L251.748 145.366L249.795 141.996L245.486 142.531L242.903 142.254Z" fill="#651FFF"/>
<path opacity="0.5" d="M242.903 142.254L240.143 141.252L237.51 143.798L239.438 135.923L241.762 134.096L242.947 134.845L248.239 134.644L252.353 134.978L254.312 134.373L256.403 136.464L251.748 145.366L249.795 141.996L245.486 142.531L242.903 142.254Z" fill="white"/>
<path d="M242.903 142.254L240.143 141.252L237.51 143.798L239.438 135.923L241.762 134.096L242.947 134.845L248.239 134.644L252.353 134.978L254.312 134.373L256.403 136.464L251.748 145.366L249.795 141.996L245.486 142.531L242.903 142.254Z" stroke="#263238" stroke-linecap="round" stroke-linejoin="round"/>
<path d="M252.07 136.439L251.44 126.813L245.354 127.89L244.094 132.413L242.834 136.332L242.235 136.395L243.892 145.391L252.674 136.571L252.07 136.439Z" fill="#858585"/>
<path d="M237.106 127.481C237.106 129.925 237.484 135.393 240.842 136.03C244.32 136.691 248.308 132.735 249.738 131.153C250.096 130.761 250.376 130.303 250.563 129.805L251.326 127.783C251.823 127.821 252.322 127.716 252.762 127.481H237.106Z" fill="#263238" stroke="#263238" stroke-width="0.5" stroke-linecap="round" stroke-linejoin="round"/>
<path d="M252.07 136.439L251.44 126.813L245.354 127.89L244.094 132.413L242.834 136.332L242.235 136.395L243.892 145.391L252.674 136.571L252.07 136.439Z" stroke="#263238" stroke-linecap="round" stroke-linejoin="round"/>
<path d="M241.164 115.12C241.164 115.12 238.285 112.928 239.696 111.201C240.433 110.307 241.391 111.485 241.391 111.485C241.391 111.485 240.88 108.738 242.928 108.335C244.818 107.982 244.742 110.149 244.742 110.149C244.742 110.149 245.719 108.291 247.426 108.707C248.787 109.034 248.264 110.962 248.264 110.962C248.264 110.962 250.078 108.707 251.956 109.702C253.575 110.552 252.239 112.594 252.239 112.594C252.239 112.594 254.167 111.913 255.244 112.997C256.322 114.08 255.244 115.517 255.244 115.517C255.244 115.517 257.367 115.517 257.462 117.104C257.556 118.692 255.818 118.994 255.818 118.994C255.818 118.994 258.275 119.788 258.294 121.716C258.312 123.644 256.668 123.026 256.668 123.026C256.668 123.026 257.689 124.841 256.838 125.805C256.743 125.934 256.618 126.039 256.475 126.111C256.332 126.183 256.173 126.221 256.013 126.221C255.852 126.221 255.694 126.183 255.551 126.111C255.408 126.039 255.283 125.934 255.188 125.805C255.188 125.805 256.252 128.092 254.904 128.759C253.94 129.232 253.373 128.073 253.373 128.073C253.373 128.073 252.561 130.051 251.578 128.841C250.595 127.632 245.719 118.314 245.719 118.314L241.164 115.12Z" fill="#263238" stroke="#263238" stroke-width="0.75" stroke-linecap="round" stroke-linejoin="round"/>
<path d="M240.332 115.208L238.517 118.988C238.331 119.382 238.235 119.812 238.234 120.248V121.433L237.232 123.953C237.181 124.084 237.139 124.219 237.106 124.356C236.785 125.698 235.254 132.905 238.996 134.373C242.297 135.671 246.947 132.539 248.654 131.254C249.08 130.934 249.439 130.534 249.713 130.076L250.847 128.237C251.328 128.38 251.843 128.368 252.317 128.202C252.791 128.036 253.2 127.724 253.486 127.31C254.501 125.855 255.672 125.068 254.28 123.757C252.888 122.447 251.603 124.545 251.603 124.545L251.792 120.847L250.179 118.012L250.097 116.229C250.097 116.229 244.817 115.643 241.277 113.709L240.332 115.208Z" fill="white" stroke="#263238" stroke-width="0.75" stroke-linecap="round" stroke-linejoin="round"/>
<path d="M240.332 115.208L238.517 118.988C238.331 119.382 238.235 119.812 238.234 120.248V121.433L237.232 123.953C237.181 124.084 237.139 124.219 237.106 124.356C236.785 125.698 235.254 132.905 238.996 134.373C242.297 135.671 246.947 132.539 248.654 131.254C249.08 130.934 249.439 130.534 249.713 130.076L250.847 128.237C251.328 128.38 251.843 128.368 252.317 128.202C252.791 128.036 253.2 127.724 253.486 127.31C254.501 125.855 255.672 125.068 254.28 123.757C252.888 122.447 251.603 124.545 251.603 124.545L251.792 120.847L250.179 118.012L250.097 116.229C250.097 116.229 244.817 115.643 241.277 113.709L240.332 115.208Z" fill="#858585" stroke="#263238" stroke-linecap="round" stroke-linejoin="round"/>
<path d="M243.546 128.117C242.525 130.089 241.139 129.761 240.27 129.27" stroke="#263238" stroke-width="0.75" stroke-linecap="round" stroke-linejoin="round"/>
<path d="M243.564 123.638C243.426 124.085 243.142 124.394 242.934 124.331C242.726 124.268 242.657 123.845 242.796 123.398C242.934 122.951 243.218 122.636 243.426 122.705C243.634 122.774 243.703 123.19 243.564 123.638Z" fill="#263238"/>
<path d="M239.355 122.333C239.217 122.787 238.933 123.096 238.725 123.026C238.517 122.957 238.448 122.541 238.587 122.094C238.725 121.647 239.015 121.338 239.217 121.407C239.418 121.477 239.494 121.886 239.355 122.333Z" fill="#263238"/>
<path d="M239.054 119.423C239.221 119.376 239.395 119.364 239.567 119.388C239.739 119.412 239.904 119.471 240.051 119.561C240.199 119.652 240.327 119.772 240.426 119.914C240.525 120.056 240.594 120.217 240.629 120.387" stroke="#263238" stroke-width="0.75" stroke-linecap="round" stroke-linejoin="round"/>
<path d="M242.676 121.143C242.676 121.143 244.144 119.599 245.133 121.237" stroke="#263238" stroke-width="0.75" stroke-linecap="round" stroke-linejoin="round"/>
<path d="M240.66 122.73C240.528 123.332 240.245 123.891 239.837 124.353C239.429 124.814 238.91 125.165 238.329 125.37L239.476 127.191" stroke="#263238" stroke-width="0.75" stroke-linecap="round" stroke-linejoin="round"/>
<path d="M247.974 194.96L247.652 196.907C247.606 197.228 247.686 197.555 247.875 197.819C248.064 198.083 248.348 198.264 248.667 198.324L268.871 201.638C269.192 201.684 269.519 201.604 269.783 201.415C270.047 201.226 270.228 200.943 270.288 200.624L270.603 198.677L247.974 194.96Z" fill="#651FFF" stroke="#263238" stroke-width="0.75" stroke-linecap="round" stroke-linejoin="round"/>
<path d="M271.509 186.41L251.074 183.056C250.466 182.957 249.893 183.368 249.793 183.976L247.768 196.317C247.668 196.924 248.08 197.498 248.688 197.597L269.122 200.951C269.73 201.051 270.304 200.639 270.403 200.031L272.429 187.691C272.528 187.083 272.116 186.51 271.509 186.41Z" fill="#651FFF"/>
<path opacity="0.5" d="M271.509 186.41L251.074 183.056C250.466 182.957 249.893 183.368 249.793 183.976L247.768 196.317C247.668 196.924 248.08 197.498 248.688 197.597L269.122 200.951C269.73 201.051 270.304 200.639 270.403 200.031L272.429 187.691C272.528 187.083 272.116 186.51 271.509 186.41Z" fill="white"/>
<path d="M271.509 186.41L251.074 183.056C250.466 182.957 249.893 183.368 249.793 183.976L247.768 196.317C247.668 196.924 248.08 197.498 248.688 197.597L269.122 200.951C269.73 201.051 270.304 200.639 270.403 200.031L272.429 187.691C272.528 187.083 272.116 186.51 271.509 186.41Z" stroke="#263238" stroke-linecap="round" stroke-linejoin="round"/>
<path d="M263.623 188.71L262.508 192.49L258.728 195.193C258.193 196.847 257.562 198.469 256.838 200.05C256.79 200.138 256.765 200.237 256.766 200.338C256.766 200.438 256.792 200.537 256.841 200.624C256.891 200.712 256.961 200.785 257.047 200.838C257.132 200.891 257.229 200.921 257.33 200.926C257.853 200.926 258.464 200.68 258.798 199.666C258.798 199.666 258.942 201.657 260.171 200.441C260.171 200.441 260.921 202.369 262.092 200.85C262.092 200.85 264.808 201.253 265.242 199.294C265.677 197.335 266.32 193.882 266.32 193.882L268.046 189.832L263.623 188.71Z" fill="#858585" stroke="#263238" stroke-linecap="round" stroke-linejoin="round"/>
<path d="M258.772 198.891L259.201 195.974" stroke="#263238" stroke-width="0.75" stroke-linecap="round" stroke-linejoin="round"/>
<path d="M259.446 199.08C259.446 199.08 259.742 200.044 260.41 199.886C261.078 199.729 262.029 200.472 264.108 199.597" stroke="#263238" stroke-width="0.75" stroke-linecap="round" stroke-linejoin="round"/>
<path d="M265.526 141.353C265.526 141.353 274.976 167.612 274.8 171.448C274.623 175.285 267.901 191.974 267.901 191.974L262.71 190.323L266.175 170.749L263.069 157.147C263.069 157.147 262.363 147.174 265.526 141.353Z" fill="#651FFF" stroke="#263238" stroke-linecap="round" stroke-linejoin="round"/>
<path d="M267.341 170.314C267.689 170.047 268.093 169.862 268.523 169.772C268.952 169.681 269.396 169.688 269.823 169.791" stroke="#263238" stroke-width="0.75" stroke-linecap="round" stroke-linejoin="round"/>
<path d="M261.198 190.739C261.01 190.489 260.869 190.207 260.782 189.907C260.419 189.9 260.067 190.031 259.796 190.274C259.526 190.516 259.357 190.852 259.324 191.214C259.291 191.576 259.397 191.937 259.62 192.224C259.842 192.511 260.166 192.703 260.524 192.761C260.901 192.823 261.287 192.733 261.597 192.511C261.908 192.289 262.118 191.953 262.181 191.577C261.775 191.405 261.432 191.112 261.198 190.739V190.739Z" fill="white"/>
<path d="M76.8225 135.318L77.9691 140.969L65.2305 141.504L67.4418 125.843L76.0224 126.838L76.8225 135.318Z" fill="white"/>
<path d="M82.5303 126.743L71.877 129.893C72.0099 131.114 72.2631 132.319 72.633 133.491C73.263 135.305 77.0997 138.531 79.563 138.493C82.0263 138.455 82.3035 130.605 82.3035 130.605L83.7903 129.78C83.8754 129.732 83.9493 129.666 84.007 129.586C84.0648 129.507 84.1051 129.417 84.1253 129.321C84.1456 129.225 84.1453 129.126 84.1244 129.03C84.1036 128.935 84.0627 128.844 84.0045 128.766L82.5303 126.743Z" fill="#263238" stroke="#263238" stroke-width="0.75" stroke-linecap="round" stroke-linejoin="round"/>
<path d="M76.8225 135.318L77.9691 140.969L65.2305 141.504L67.4418 125.843L76.0224 126.838L76.8225 135.318Z" stroke="#263238" stroke-linecap="round" stroke-linejoin="round"/>
<path d="M77.4081 115.41C77.4081 115.41 80.5014 116.04 80.1864 112.682C79.8714 109.324 74.1069 111.378 71.1018 111.756C68.0967 112.134 58.3947 115.756 61.8282 121.477C61.8282 121.477 59.8059 124.702 67.0887 130.114C67.0887 130.114 70.5474 128.489 72.4437 130.864L73.9242 127.978L77.7042 121.338L77.4081 115.41Z" fill="#263238" stroke="#263238" stroke-linecap="round" stroke-linejoin="round"/>
<path d="M77.1816 114.906C77.1816 114.906 80.1426 116.556 81.8436 114.49C81.8436 114.49 82.0326 118.9 77.1816 114.906Z" fill="#263238" stroke="#263238" stroke-linecap="round" stroke-linejoin="round"/>
<path d="M77.4903 114.446C77.4903 114.446 81.9003 119.089 81.7491 122.27V125.175L84.0801 127.796C84.1453 127.863 84.1947 127.943 84.2247 128.032C84.2548 128.12 84.2647 128.215 84.2539 128.308C84.243 128.4 84.2116 128.49 84.162 128.569C84.1123 128.648 84.0456 128.715 83.9667 128.766L82.6122 129.704C82.6122 129.704 83.0091 137.138 80.6781 137.403C78.3471 137.668 74.4663 134.883 73.6914 133.245C73.1078 131.742 72.6854 130.181 72.4314 128.589C71.7529 128.406 71.145 128.023 70.6858 127.491C70.2266 126.959 69.9371 126.301 69.8547 125.603C69.5838 123.159 72.0471 123.228 72.6834 124.828L73.2 126.132L74.8002 126.076C74.8002 126.076 73.8867 123.77 74.4285 123.089C74.9703 122.409 77.0997 120.752 76.1232 119.171C75.1467 117.59 75.4743 114.899 77.4903 114.446Z" fill="white" stroke="#263238" stroke-linecap="round" stroke-linejoin="round"/>
<path d="M80.0098 131.16C80.1932 131.485 80.4744 131.745 80.8136 131.902C81.1527 132.06 81.5327 132.106 81.8998 132.035" stroke="#263238" stroke-width="0.75" stroke-linecap="round" stroke-linejoin="round"/>
<path d="M78.8506 122.289C78.8506 122.289 79.8523 120.897 80.8036 122.17" stroke="#263238" stroke-linecap="round" stroke-linejoin="round"/>
<path d="M80.4322 125.194C80.4322 125.628 80.2621 125.987 80.029 125.994C79.7959 126 79.5943 125.654 79.5817 125.219C79.5691 124.784 79.7518 124.425 79.9849 124.419C80.218 124.412 80.4196 124.74 80.4322 125.194Z" fill="#263238"/>
<path d="M60.2283 264.751L58.3887 280.583L63.8634 281.427L66.8811 265.778L60.2283 264.751Z" fill="white" stroke="#263238" stroke-linecap="round" stroke-linejoin="round"/>
<path d="M57.6514 194.796C57.6514 194.796 57.8719 203.969 61.1101 210.42L61.8472 234.763L58.1113 273.987L66.421 274.781L73.981 233.755L76.501 196.585L57.6514 194.796Z" fill="#651FFF" stroke="#263238" stroke-linecap="round" stroke-linejoin="round"/>
<path opacity="0.2" d="M75.3294 214.458L74.6364 210.092L71.4864 196.352L70.9068 196.056L57.6768 194.796C57.6768 194.796 57.6768 196.302 57.9729 198.526L64.506 202.23C64.66 204.556 65.1854 206.842 66.0621 209.003C66.1406 209.191 66.1692 209.397 66.1453 209.6C66.1214 209.802 66.0457 209.996 65.9255 210.161C65.8052 210.326 65.6445 210.458 65.4588 210.543C65.2731 210.628 65.0686 210.664 64.8651 210.647C64.191 210.596 63.6051 210.647 63.6051 211.088C63.6051 212.108 68.5317 215.403 68.5317 215.403C68.5317 215.403 73.5024 231.468 73.326 237.403L74.0001 233.749L75.3294 214.458Z" fill="black"/>
<path d="M76.9355 265.791L77.534 281.717H83.0717L83.6639 265.791H76.9355Z" fill="white" stroke="#263238" stroke-linecap="round" stroke-linejoin="round"/>
<path d="M91.8912 283.96C90.0632 283.403 88.2846 282.695 86.574 281.843C85.755 281.333 84.6084 279.663 83.7642 279.191C83.5871 279.114 83.3963 279.075 83.2035 279.075C83.0107 279.075 82.8199 279.114 82.6428 279.191C82.2396 279.518 82.2207 281.226 82.2207 281.226C82.2207 281.226 81.5088 279.487 80.9922 279.191C80.274 278.788 78.321 278.668 77.6847 279.191C76.6263 280.054 76.242 283.053 76.0341 284.401C75.9837 284.697 76.0341 286.335 76.0341 286.335H93.0441V285.585C93.0454 285.228 92.9349 284.879 92.7282 284.588C92.5215 284.296 92.2289 284.077 91.8912 283.96V283.96Z" fill="#263238" stroke="#263238" stroke-linecap="round" stroke-linejoin="round"/>
<path d="M88.5214 195.552L87.1606 232.35L84.8863 274.365H76.2301C76.2301 274.365 74.4157 242.115 74.8693 232.785L70.327 211.208C70.327 211.208 65.5579 204.845 66.6919 197.127L88.5214 195.552Z" fill="#651FFF" stroke="#263238" stroke-linecap="round" stroke-linejoin="round"/>
<path d="M75.4609 271.24L75.7444 276.293H85.2259L85.963 271.24H75.4609Z" fill="#651FFF" stroke="#263238" stroke-linecap="round" stroke-linejoin="round"/>
<path d="M57.418 270.806L57.2227 275.858L66.6601 276.759L67.876 271.801L57.418 270.806Z" fill="#651FFF" stroke="#263238" stroke-linecap="round" stroke-linejoin="round"/>
<path d="M102.872 171.329L89.7744 163L103.578 149.197L116.682 157.525L102.872 171.329Z" fill="#651FFF" stroke="#263238" stroke-linecap="round" stroke-linejoin="round"/>
<path d="M103.622 168.481L93.0889 161.784L104.189 150.683L114.723 157.38L103.622 168.481Z" fill="white" stroke="#263238" stroke-width="0.75" stroke-linecap="round" stroke-linejoin="round"/>
<path d="M104.391 156.983L106.23 155.144L103.868 153.644L102.028 155.478L104.391 156.983Z" stroke="#263238" stroke-width="0.75" stroke-linecap="round" stroke-linejoin="round"/>
<path d="M101.537 159.844L103.377 158.004L101.008 156.498L99.1748 158.338L101.537 159.844Z" stroke="#263238" stroke-width="0.75" stroke-linecap="round" stroke-linejoin="round"/>
<path d="M98.5827 162.798L100.416 160.959L98.0535 159.453L96.2139 161.293L98.5827 162.798Z" stroke="#263238" stroke-width="0.75" stroke-linecap="round" stroke-linejoin="round"/>
<path d="M108.895 151.345L107.157 153.09C107.074 153.172 107.011 153.272 106.973 153.381C106.934 153.491 106.921 153.608 106.933 153.724C106.946 153.839 106.985 153.95 107.046 154.049C107.108 154.148 107.191 154.231 107.289 154.293L109.809 155.912C110.087 156.09 110.416 156.167 110.744 156.131C111.072 156.096 111.377 155.95 111.611 155.717L113.217 154.104L108.895 151.345Z" fill="#858585" stroke="#263238" stroke-linecap="round" stroke-linejoin="round"/>
<path d="M62.2881 140.591L64.5624 135.595C64.5624 135.595 77.7357 134.121 81.2511 145.133L62.2881 140.591Z" fill="#858585" stroke="#263238" stroke-linecap="round" stroke-linejoin="round"/>
<path d="M54.8099 144.85C54.8099 144.85 51.5591 169.754 52.4222 178.58C53.1026 185.56 57.7016 191.47 57.7016 191.47L64.5182 188.798L61.0532 178.58C61.0532 178.58 62.1305 160.184 63.1511 155.9L54.8099 144.85Z" fill="#858585" stroke="#263238" stroke-linecap="round" stroke-linejoin="round"/>
<path d="M55.7295 190.247L57.651 192.547L65.526 189.479L64.5054 186.411L55.7295 190.247Z" fill="#858585" stroke="#263238" stroke-linecap="round" stroke-linejoin="round"/>
<path d="M54.8101 144.85C54.8101 144.85 53.7832 159.157 56.7001 169.212C59.617 179.267 56.7001 195.779 56.7001 195.779C56.7001 195.779 70.1254 204.467 90.7201 197.82C90.7201 197.82 88.1686 148.932 84.7603 146.21C81.352 143.489 62.1181 133.1 54.8101 144.85Z" fill="#858585" stroke="#263238" stroke-linecap="round" stroke-linejoin="round"/>
<path opacity="0.2" d="M90.7197 197.82C90.7197 197.82 89.844 181.062 88.4391 166.622C85.4592 159.39 80.5893 149.757 80.331 163.283C79.953 182.845 91.9923 181.692 82.4541 185.1C80.3214 185.908 78.0367 186.236 75.7629 186.059C73.4892 185.883 71.2823 185.207 69.2997 184.08C69.1412 183.999 68.9596 183.974 68.7852 184.01C68.6108 184.046 68.4539 184.141 68.3407 184.279C68.2274 184.416 68.1646 184.588 68.1626 184.766C68.1605 184.944 68.2194 185.118 68.3295 185.258C70.7235 188.301 74.3586 190.197 77.1495 191.287C77.4015 191.383 77.6146 191.56 77.7555 191.79C77.8964 192.02 77.9572 192.291 77.9285 192.559C77.8997 192.827 77.783 193.078 77.5965 193.273C77.41 193.468 77.1642 193.596 76.8975 193.637C67.9137 194.966 60.8703 190.191 57.6384 187.412C57.2604 192.226 56.6367 195.779 56.6367 195.779C56.6367 195.779 70.125 204.467 90.7197 197.82Z" fill="black"/>
<path d="M84.7723 146.217C86.0004 146.78 87.0661 147.646 87.8702 148.732C88.6743 149.818 89.1906 151.089 89.3713 152.429C90.0517 157.116 94.4113 171.511 94.4113 171.511L95.8603 170.573C97.07 171.116 98.0666 172.043 98.6954 173.211C99.3242 174.379 99.55 175.721 99.3379 177.03C99.3379 177.03 95.7973 183.96 91.9291 182.656C87.9538 181.308 85.7299 178.057 83.7391 172.74C82.687 169.905 79.6504 161.362 79.6504 161.362" fill="#858585"/>
<path d="M84.7723 146.217C86.0004 146.78 87.0661 147.646 87.8702 148.732C88.6743 149.818 89.1906 151.089 89.3713 152.429C90.0517 157.116 94.4113 171.511 94.4113 171.511L95.8603 170.573C97.07 171.116 98.0666 172.043 98.6954 173.211C99.3242 174.379 99.55 175.721 99.3379 177.03C99.3379 177.03 95.7973 183.96 91.9291 182.656C87.9538 181.308 85.7299 178.057 83.7391 172.74C82.687 169.905 79.6504 161.362 79.6504 161.362" stroke="#263238" stroke-linecap="round" stroke-linejoin="round"/>
<path d="M96.15 175.682C96.1728 176.052 96.1559 176.424 96.0996 176.791" stroke="#263238" stroke-width="0.75" stroke-linecap="round" stroke-linejoin="round"/>
<path d="M93.5488 178.58C93.5488 178.58 94.7395 176.69 94.5694 172.614C95.1419 173.047 95.579 173.635 95.8294 174.308" stroke="#263238" stroke-width="0.75" stroke-linecap="round" stroke-linejoin="round"/>
<path d="M96.8115 170.176L101.354 166.937C101.581 165.931 102.075 165.004 102.785 164.254C103.494 163.505 104.393 162.96 105.386 162.679C105.386 162.679 107.484 159.214 108.674 159.617C109.865 160.02 107.257 161.431 107.03 163.246L107.994 164.537C107.994 164.537 111.144 163.983 111.913 162.962C111.913 162.962 111.743 165.123 110.495 165.482C110.495 165.482 110.495 167.126 109.645 167.07L103.395 168.834L99.7599 175.619L96.8115 170.176Z" fill="white" stroke="#263238" stroke-linecap="round" stroke-linejoin="round"/>
<path d="M78.2148 185.926C78.9331 185.859 79.645 185.737 80.3442 185.56" stroke="#263238" stroke-width="0.75" stroke-linecap="round" stroke-linejoin="round"/>
<path d="M60.3604 175.6C60.3604 175.6 67.0573 185.844 76.7404 185.982" stroke="#263238" stroke-width="0.75" stroke-linecap="round" stroke-linejoin="round"/>
<path d="M94.8525 170.289C94.8525 170.289 99.5901 173.867 99.1365 178.183L100.844 174.913C100.844 174.913 100.787 172.16 96.8685 169.243L94.8525 170.289Z" fill="#858585" stroke="#263238" stroke-linecap="round" stroke-linejoin="round"/>
<path d="M76.035 286.335H93.045V285.585C93.0449 285.401 93.0151 285.218 92.9568 285.043H76.0098C76.0098 285.617 76.035 286.335 76.035 286.335Z" fill="white" stroke="#263238" stroke-width="0.75" stroke-linecap="round" stroke-linejoin="round"/>
<path d="M72.4498 283.96C70.6218 283.403 68.8432 282.695 67.1326 281.843C66.3136 281.333 65.167 279.663 64.3291 279.191C64.151 279.114 63.9591 279.075 63.7653 279.075C63.5714 279.075 63.3796 279.114 63.2014 279.191C62.7982 279.518 62.7793 281.226 62.7793 281.226C62.7793 281.226 62.0737 279.487 61.5508 279.191C60.8326 278.788 58.8796 278.668 58.2433 279.191C57.1849 280.054 56.8006 283.053 56.5927 284.401C56.5423 284.697 56.5927 286.335 56.5927 286.335H73.6027V285.585C73.604 285.228 73.4935 284.879 73.2868 284.588C73.0801 284.296 72.7875 284.077 72.4498 283.96V283.96Z" fill="#263238" stroke="#263238" stroke-linecap="round" stroke-linejoin="round"/>
<path d="M56.5799 286.335H73.5899V285.585C73.5898 285.401 73.56 285.218 73.5017 285.043H56.5547C56.5547 285.617 56.5799 286.335 56.5799 286.335Z" fill="white" stroke="#263238" stroke-width="0.75" stroke-linecap="round" stroke-linejoin="round"/>
<path d="M81.6731 233.031C81.6731 233.031 79.865 236.149 76.9355 234.959" stroke="#263238" stroke-width="0.75" stroke-linecap="round" stroke-linejoin="round"/>
<path d="M69.067 234.127C69.067 234.127 65.8225 236.899 63.1387 234.959" stroke="#263238" stroke-width="0.75" stroke-linecap="round" stroke-linejoin="round"/>
<path d="M102.923 153.424L103.376 155.679H107.396L104.126 154.917L104.284 153.38L102.923 153.424Z" fill="#651FFF"/>
<mask id="mask0_599_3708" style="mask-type:alpha" maskUnits="userSpaceOnUse" x="7" y="23" width="308" height="292">
<rect x="7" y="23" width="308" height="292" fill="#D9D9D9"/>
</mask>
<g mask="url(#mask0_599_3708)">
</g>
</svg>
