<svg width="64" height="64" viewBox="0 0 64 64" fill="none" xmlns="http://www.w3.org/2000/svg">
<circle cx="32" cy="32" r="32" fill="#E0F7FA"/>
<g clip-path="url(#clip0_103_5409)">
<path d="M42.5535 15.1265C43.8683 13.8078 46.0058 13.8073 47.3207 15.1258L48.8605 16.6636C50.1894 17.9918 50.1754 20.1476 48.8394 21.4603L46.041 24.2025L39.7621 17.9194L42.5535 15.1265ZM44.4308 25.7775L34.2215 35.7689C33.7363 36.247 33.1457 36.6056 32.4988 36.8236L27.4715 38.504C26.8035 38.7079 26.1988 38.5462 25.7418 38.0962C25.2918 37.6462 25.1371 36.9783 25.334 36.3665L27.0074 31.3533C27.2254 30.6923 27.598 30.0876 28.0972 29.5954L38.166 19.5105L44.4308 25.7775Z" fill="#00E5FF"/>
<path opacity="0.4" d="M32 14.5625C34.1164 14.5625 36.0852 14.9401 38.0258 15.6305L35.3469 18.3383C34.2711 18.076 33.1531 17.9375 32 17.9375C24.2305 17.9375 17.9375 24.2305 17.9375 32C17.9375 39.7695 24.2305 46.0625 32 46.0625C32.9352 46.0625 33.6875 46.8148 33.6875 47.75C33.6875 48.6852 32.9352 49.4375 32 49.4375C22.3672 49.4375 14.5625 41.5695 14.5625 32C14.5625 22.3672 22.3672 14.5625 32 14.5625ZM46.0625 32C46.0625 30.8117 45.9289 29.7711 45.6758 28.7234L48.3828 26.0164C49.0648 27.8797 49.4375 29.8977 49.4375 32C49.4375 37.8992 44.6492 42.6875 38.75 42.6875C37.8289 42.6875 36.9359 42.568 36.0781 42.35C35.1781 42.118 34.6367 41.1969 34.8687 40.2336C35.1008 39.3898 36.0148 38.8484 36.8586 39.0805C37.5055 39.2352 38.0539 39.3125 38.75 39.3125C42.7859 39.3125 46.0625 36.0359 46.0625 32Z" fill="#00E5FF"/>
</g>
<defs>
<clipPath id="clip0_103_5409">
<rect width="36" height="36" fill="white" transform="translate(14 14)"/>
</clipPath>
</defs>
</svg>
