<svg width="64" height="64" viewBox="0 0 64 64" fill="none" xmlns="http://www.w3.org/2000/svg">
<circle cx="32" cy="32" r="32" fill="#ECECFE"/>
<g clip-path="url(#clip0_103_5410)">
<path d="M43.1712 23.9212L49.4712 30.3063C50.1744 31.019 50.1744 32.1706 49.4712 32.8832L43.1712 39.2683C42.4681 39.9809 41.3319 39.9809 40.6287 39.2683C39.9256 38.5557 39.9256 37.4041 40.6287 36.6915L45.6519 31.5948L40.6287 26.498C39.9256 25.7854 39.9256 24.6338 40.6287 23.9212C41.3319 23.2086 42.4681 23.2086 43.1712 23.9212ZM23.3713 26.498L18.3453 31.5948L23.3713 36.6915C24.0744 37.4041 24.0744 38.5557 23.3713 39.2683C22.6681 39.9809 21.5319 39.9809 20.8288 39.2683L14.5272 32.8832C13.8243 32.1706 13.8243 31.019 14.5272 30.3063L20.8288 23.9212C21.5319 23.2086 22.6681 23.2086 23.3713 23.9212C24.0744 24.6338 24.0744 25.7854 23.3713 26.498Z" fill="#651FFF"/>
<path opacity="0.4" d="M37.3322 19.3254L30.1322 44.8665C29.8566 45.8357 28.8609 46.3944 27.9047 46.1207C26.9484 45.8414 26.3972 44.8323 26.6672 43.8631L33.8672 18.3232C34.1428 17.3543 35.1384 16.7934 36.0947 17.0702C37.0509 17.347 37.6022 18.3568 37.3322 19.3254Z" fill="#651FFF"/>
</g>
<defs>
<clipPath id="clip0_103_5410">
<rect width="36" height="29.1892" fill="white" transform="translate(14 17)"/>
</clipPath>
</defs>
</svg>
